<svg width="26" height="30" viewBox="0 0 26 30" fill="none" xmlns="http://www.w3.org/2000/svg">
<path d="M17.0937 25.102H1.17504C0.836826 25.102 0.562866 24.8283 0.562866 24.4901V4.28595C0.562866 3.94739 0.837171 3.67377 1.17504 3.67377H21.9918C22.33 3.67377 22.6043 3.94739 22.6043 4.28595V19.592C22.6043 19.7544 22.5397 19.9099 22.4246 20.0249L17.5265 24.923C17.4118 25.0377 17.256 25.102 17.0937 25.102ZM1.78722 23.8776H16.8397L21.3792 19.3381V4.89778H1.78722V23.8776Z" fill="#375A54"/>
<path d="M1.78722 23.8776H16.8397L21.3792 19.3381V4.89778H1.78722V23.8776Z" fill="#A2D6BB"/>
<path d="M5.46145 8.57147C5.12289 8.57147 4.84892 8.29752 4.84892 7.95965C4.84892 7.63939 5.09352 7.37752 5.40652 7.34988C5.6176 7.17646 6.07328 6.12451 6.07328 4.28625C6.07328 2.59379 5.68739 1.5674 5.46145 1.28031C5.23482 1.5674 4.84892 2.59379 4.84892 4.28625C4.84892 4.62447 4.57462 4.89808 4.23675 4.89808C3.89853 4.89808 3.62457 4.62412 3.62457 4.28625C3.62457 2.15262 4.19288 0 5.46145 0C6.72967 0 7.29798 2.15262 7.29798 4.28625C7.29798 6.41919 6.73002 8.57147 5.46145 8.57147Z" fill="#375A54"/>
<path d="M11.5834 8.57147C11.2452 8.57147 10.9713 8.29752 10.9713 7.95965C10.9713 7.63939 11.2162 7.37752 11.5289 7.34988C11.7406 7.17646 12.196 6.12451 12.196 4.28625C12.196 2.59379 11.8097 1.5674 11.5838 1.28031C11.3575 1.5674 10.9716 2.59379 10.9716 4.28625C10.9716 4.62447 10.698 4.89808 10.3594 4.89808C10.0216 4.89808 9.74725 4.62412 9.74725 4.28625C9.74725 2.15262 10.3152 0 11.5841 0C12.853 0 13.421 2.15262 13.421 4.28625C13.4203 6.41919 12.852 8.57147 11.5834 8.57147Z" fill="#375A54"/>
<path d="M17.7068 8.57147C17.3686 8.57147 17.0947 8.29752 17.0947 7.95965C17.0947 7.63939 17.3396 7.37752 17.6523 7.34988C17.8633 7.17646 18.3194 6.12451 18.3194 4.28625C18.3194 2.59379 17.9331 1.5674 17.7072 1.28031C17.4809 1.5674 17.095 2.59379 17.095 4.28625C17.095 4.62447 16.8207 4.89808 16.4828 4.89808C16.1446 4.89808 15.8707 4.62412 15.8707 4.28625C15.8707 2.15262 16.439 0 17.7075 0C18.9764 0 19.5437 2.15262 19.5437 4.28625C19.5434 6.41919 18.9758 8.57147 17.7068 8.57147Z" fill="#375A54"/>
<path d="M17.7064 10.408C16.3563 10.408 15.257 9.30942 15.257 7.95932C15.257 6.60887 16.3563 5.51025 17.7064 5.51025C19.0565 5.51025 20.1551 6.60887 20.1551 7.95932C20.1551 9.30942 19.0565 10.408 17.7064 10.408ZM17.7064 6.73461C17.031 6.73461 16.4817 7.28392 16.4817 7.95932C16.4817 8.63402 17.031 9.18331 17.7064 9.18331C18.3815 9.18331 18.9311 8.63402 18.9311 7.95932C18.9311 7.28392 18.3815 6.73461 17.7064 6.73461Z" fill="#375A54"/>
<path d="M11.5842 10.408C10.2337 10.408 9.13513 9.30939 9.13513 7.95929C9.13513 6.60884 10.2341 5.51022 11.5842 5.51022C12.9343 5.51022 14.0336 6.60884 14.0336 7.95929C14.0332 9.30939 12.9343 10.408 11.5842 10.408ZM11.5842 6.73458C10.9088 6.73458 10.3595 7.28389 10.3595 7.95929C10.3595 8.63399 10.9088 9.18328 11.5842 9.18328C12.2596 9.18328 12.8089 8.63399 12.8089 7.95929C12.8085 7.28389 12.2596 6.73458 11.5842 6.73458Z" fill="#375A54"/>
<path d="M5.46147 10.408C4.11068 10.408 3.01208 9.30939 3.01208 7.95929C3.01208 6.60884 4.11068 5.51022 5.46147 5.51022C6.81123 5.51022 7.91017 6.60884 7.91017 7.95929C7.91051 9.30939 6.81157 10.408 5.46147 10.408ZM5.46147 6.73458C4.78608 6.73458 4.23677 7.28389 4.23677 7.95929C4.23677 8.63399 4.78608 9.18328 5.46147 9.18328C6.13652 9.18328 6.68548 8.63399 6.68548 7.95929C6.68582 7.28389 6.13652 6.73458 5.46147 6.73458Z" fill="#375A54"/>
<path d="M21.9917 30H1.17504C0.836826 30 0.562866 29.7264 0.562866 29.3881C0.562866 29.0499 0.837171 28.776 1.17504 28.776H21.9917C22.33 28.776 22.6043 29.0503 22.6043 29.3881C22.6043 29.7264 22.33 30 21.9917 30Z" fill="#375A54"/>
<path d="M21.9917 27.5513H1.17504C0.836826 27.5513 0.562866 27.277 0.562866 26.9391C0.562866 26.6013 0.837171 26.327 1.17504 26.327H21.9917C22.33 26.327 22.6043 26.6013 22.6043 26.9391C22.6043 27.277 22.33 27.5513 21.9917 27.5513Z" fill="#375A54"/>
<path d="M17.0942 25.1019C17.015 25.1019 16.9356 25.087 16.8596 25.0556C16.6312 24.9606 16.4816 24.7374 16.4816 24.4897V19.5916C16.4816 19.2538 16.7559 18.9795 17.0938 18.9795H21.9919C22.2396 18.9795 22.4628 19.1287 22.5578 19.3577C22.6521 19.5864 22.5999 19.85 22.4248 20.0249L17.5267 24.9229C17.4099 25.0401 17.2534 25.1019 17.0942 25.1019ZM17.7063 20.2042V23.0121L20.514 20.2042H17.7063Z" fill="#375A54"/>
<path d="M16.3976 17.6742C16.3972 17.6742 16.3971 17.6742 16.3964 17.6742C16.3215 17.6739 16.2496 17.6438 16.1969 17.5905L13.3908 14.7504C13.2818 14.6401 13.2822 14.4623 13.3919 14.3527L20.7244 7.02036C20.8345 6.91024 21.013 6.91024 21.123 7.02036L23.9434 9.8405C24.0535 9.95062 24.0535 10.129 23.9434 10.2394L16.597 17.5915C16.5441 17.6443 16.4725 17.6742 16.3976 17.6742ZM13.9893 14.5533L16.3988 16.992L23.3453 10.0399L20.9237 7.61854L13.9893 14.5533Z" fill="#375A54"/>
<path d="M13.9893 14.5533L16.3988 16.992L23.3453 10.0399L20.9237 7.61854L13.9893 14.5533Z" fill="#A2D6BB"/>
<path d="M23.7452 10.3218C23.673 10.3218 23.601 10.2943 23.5458 10.2393L20.7255 7.41912C20.6154 7.30885 20.6154 7.13046 20.7255 7.02018L22.1354 5.61012C22.2457 5.5 22.4243 5.5 22.5344 5.61012L25.3547 8.4304C25.4646 8.54036 25.4646 8.71923 25.3547 8.82919L23.9446 10.2393C23.8897 10.2943 23.8175 10.3218 23.7452 10.3218ZM21.324 7.21989L23.7454 9.64108L24.7567 8.62996L22.3353 6.20861L21.324 7.21989Z" fill="#375A54"/>
<path d="M21.324 7.21989L23.7454 9.64108L24.7567 8.62996L22.3353 6.20861L21.324 7.21989Z" fill="#A2D6BB"/>
<path d="M11.8998 19.3464C11.8261 19.3464 11.7539 19.3176 11.7001 19.2638C11.6219 19.1855 11.5966 19.0691 11.6356 18.9655L13.3277 14.4531C13.3616 14.3632 13.4389 14.2967 13.5329 14.2765C13.627 14.2564 13.7247 14.2856 13.7923 14.354L16.5985 17.1942C16.6659 17.2623 16.6941 17.3597 16.6734 17.4532C16.6527 17.5466 16.586 17.6232 16.4963 17.6566L11.9981 19.3289C11.9658 19.3409 11.9326 19.3464 11.8998 19.3464ZM13.7008 15.064L12.3807 18.5847L15.8905 17.2799L13.7008 15.064Z" fill="#375A54"/>
<path d="M13.5919 18.5004C13.5909 18.5004 13.5898 18.5004 13.5885 18.5003C13.4329 18.4985 13.3081 18.3707 13.3099 18.2149C13.3128 18.0036 13.2305 17.8585 13.0518 17.7579C12.8941 17.6694 12.7244 17.6535 12.7227 17.6532C12.5674 17.6414 12.4522 17.5058 12.4641 17.3507C12.4759 17.1954 12.6126 17.0795 12.7677 17.0911C13.1549 17.1207 13.8842 17.3954 13.874 18.2216C13.8721 18.3763 13.7461 18.5004 13.5919 18.5004Z" fill="#375A54"/>
<path d="M15.2825 14.834C15.2103 14.834 15.138 14.8064 15.083 14.7515C14.9728 14.6414 14.9728 14.4629 15.083 14.3526L20.7232 8.71232C20.8333 8.60236 21.0119 8.60236 21.1219 8.71232C21.2321 8.82244 21.2321 9.00114 21.1219 9.11126L15.4819 14.7515C15.4267 14.8066 15.3544 14.834 15.2825 14.834Z" fill="#375A54"/>
<path d="M16.4113 15.9622C16.3392 15.9622 16.2671 15.9346 16.2117 15.8795C16.1018 15.7694 16.1018 15.5908 16.2117 15.4807L21.8522 9.84028C21.9623 9.73032 22.1408 9.73032 22.251 9.84028C22.3612 9.9504 22.3612 10.129 22.251 10.2392L16.6107 15.8795C16.5558 15.9346 16.4834 15.9622 16.4113 15.9622Z" fill="#375A54"/>
<path d="M23.7438 8.91194C23.6513 8.91194 23.5636 8.86596 23.5111 8.78942C23.3937 8.65956 22.6151 7.89063 22.1362 7.42103C22.0248 7.31203 22.0231 7.13349 22.1323 7.02242C22.2414 6.91102 22.4198 6.90911 22.531 7.01828C22.5345 7.02162 22.8896 7.3698 23.2392 7.71575C23.4448 7.91944 23.6085 8.08287 23.7261 8.20142C23.7964 8.27255 23.8514 8.32873 23.8889 8.36803C23.9661 8.44919 24.0538 8.54085 24.0186 8.69298C23.9965 8.78878 23.926 8.86643 23.8329 8.8973C23.8034 8.90717 23.7734 8.91194 23.7438 8.91194Z" fill="#375A54"/>
</svg>
