<svg width="335" height="477" viewBox="0 0 335 477" fill="none" xmlns="http://www.w3.org/2000/svg">
<rect width="335" height="477" fill="#F0DDCA"/>
<path d="M168.733 23.56C168.505 23.9394 163.648 24.4706 157.881 24.6983C130.866 25.9124 103.699 37.5988 84.6517 56.1907C80.478 60.2126 79.2638 62.4133 81.0092 62.4133C81.4645 62.4133 84.8034 59.8332 88.4459 56.5701C95.5792 50.3475 105.975 43.1384 113.26 39.4959C129.576 31.1485 151.279 26.2919 166.987 27.4301C169.34 27.5819 168.353 30.0102 163.8 34.6393C158.868 39.8753 156.287 44.2767 154.997 49.8922L154.163 53.6865L149.078 53.9141L143.994 54.1418V68.7876C143.994 86.9242 144.525 88.8973 151.127 95.4234C156.894 101.115 160.841 102.632 169.567 102.632C180.722 102.632 188.235 98.307 192.712 89.2008C195.065 84.3441 195.141 83.8888 195.444 72.5819C195.748 61.275 195.748 60.8956 194.23 60.8956C192.788 60.8956 192.712 61.5027 192.409 72.0507C192.181 81.3087 191.878 83.8888 190.588 86.6966C188.235 91.7809 185.427 94.6645 180.267 97.2446C176.245 99.2935 174.803 99.5971 169.491 99.5971C162.206 99.5971 157.35 97.7 152.948 93.0709C147.788 87.6072 147.029 84.9512 147.029 70.6848V58.0119L149.154 57.7084C153.024 57.1772 153.631 57.7084 154.921 63.0204C155.604 65.8281 157.274 69.9259 158.64 72.1266C161.523 76.9833 167.822 82.9023 170.023 82.9023C172.299 82.9023 180.115 74.5549 182.316 69.7742C183.378 67.6494 184.593 64.0069 185.048 61.8062L185.959 57.8602L190.967 57.7843C193.699 57.7084 196.962 57.7084 198.1 57.7084C204.93 57.8602 207.131 66.4352 201.136 69.243C198.631 70.3812 197.645 73.0372 199.694 73.0372C204.475 73.0372 207.965 68.4841 207.51 62.9445C206.903 56.2666 203.033 54.0659 192.029 54.0659H185.807L184.972 50.8028C183.454 44.732 180.798 40.0271 176.093 35.0187C173.437 32.2109 171.313 29.4032 171.313 28.6443C171.313 27.4301 171.844 27.3543 177.004 27.7337C198.404 29.5549 220.866 38.8888 238.547 53.3829C250.613 63.248 262.83 78.8804 269.205 92.6156C273.151 100.963 273.303 101.342 274.289 101.646C278.387 103.012 269.584 84.42 260.023 71.4436C240.975 45.7185 208.421 27.3543 176.928 24.6983C173.817 24.4706 171.085 23.9394 170.857 23.6359C170.326 22.8011 169.264 22.8011 168.733 23.56ZM168.277 38.5094C168.277 41.6207 168.126 41.9242 166.456 41.9242C164.255 41.9242 163.345 42.9866 164.711 44.049C165.621 44.8079 166.077 44.9597 167.518 44.9597C167.974 44.9597 168.277 45.6426 168.277 46.4774C168.277 47.6915 167.746 47.9951 165.697 47.9951C162.358 47.9951 160.689 48.678 160.689 49.9681C160.689 50.7269 161.751 51.0305 164.483 51.0305C168.05 51.0305 168.277 51.1823 168.277 52.9276C168.277 54.673 168.05 54.8247 164.559 54.8247C162.434 54.8247 160.537 55.2801 160.006 55.8113C158.792 57.4048 159.778 57.8602 164.255 57.8602C168.05 57.8602 168.277 58.0119 168.277 59.6814C168.277 61.4268 167.898 61.5785 164.711 61.8062C161.979 61.958 160.992 62.3374 160.841 63.3239C160.613 64.4622 161.144 64.6898 164.407 64.6898C168.05 64.6898 168.277 64.8416 168.277 66.587C168.277 68.1047 167.898 68.4841 166.456 68.4841C164.711 68.4841 163.345 70.1536 164.255 71.0642C164.559 71.2919 165.545 71.5195 166.532 71.5195C168.126 71.5195 168.277 71.8231 168.277 75.0861V78.6527L165.166 75.6932C163.497 74.0237 161.068 70.4571 159.702 67.8011C157.653 63.5516 157.35 62.1097 157.274 56.7978C157.274 51.6376 157.577 49.8922 159.323 46.2497C161.448 41.7725 166.38 35.0946 167.594 35.0946C167.974 35.0946 168.277 36.6123 168.277 38.5094ZM175.335 38.2817C176.776 40.103 178.901 43.4419 180.115 45.7185C181.937 49.2851 182.24 50.8028 182.24 56.3425C182.316 62.1097 182.088 63.3239 179.888 67.7253C178.522 70.4571 176.093 74.0237 174.424 75.6932L171.313 78.6527V75.162C171.313 71.8989 171.464 71.5954 173.437 71.3677C174.652 71.216 175.486 70.6848 175.486 70.0018C175.486 69.3188 174.652 68.7876 173.437 68.6359C171.768 68.4082 171.313 67.9529 171.313 66.5111C171.313 64.8416 171.616 64.6898 175.183 64.6898C178.446 64.6898 178.977 64.4622 178.749 63.3239C178.598 62.3374 177.611 61.958 174.879 61.8062C171.692 61.5785 171.313 61.4268 171.313 59.6814C171.313 58.0119 171.54 57.8602 175.411 57.8602C179.584 57.8602 181.557 56.7219 179.584 55.5077C178.977 55.1283 176.928 54.8247 174.955 54.8247C171.616 54.8247 171.313 54.673 171.313 52.9276C171.313 51.1823 171.54 51.0305 175.107 51.0305C177.839 51.0305 178.901 50.7269 178.901 49.9681C178.901 48.678 177.232 47.9951 173.893 47.9951C171.844 47.9951 171.313 47.6915 171.313 46.4774C171.313 45.4908 171.844 44.9597 172.755 44.9597C174.348 44.9597 176.169 43.2143 175.335 42.4554C175.107 42.1519 174.045 41.9242 173.058 41.9242C171.464 41.9242 171.313 41.5448 171.313 38.5094C171.313 36.6123 171.616 35.0946 171.996 35.0946C172.375 35.0946 173.893 36.5364 175.335 38.2817Z" fill="#375A54"/>
<path d="M62.4172 77.5146C58.623 79.26 56.4982 81.5366 54.2975 86.3173C52.5521 90.0357 52.5521 90.5669 52.1727 126.537C51.7933 165.997 51.7933 165.921 47.6196 166.908C44.7359 167.591 44.5842 167.742 45.4948 170.171C46.4813 172.978 48.1508 173.965 52.0968 173.965C54.2216 173.965 55.7393 173.358 57.5606 171.916C62.4172 167.818 62.3413 168.273 62.7966 127.144L63.1761 89.8839L64.9973 87.9109C67.8051 84.9514 73.0412 85.4067 74.6348 88.7457C75.0142 89.5045 75.4695 108.855 75.6971 131.849L76.0766 173.585L79.2638 173.813C81.0091 173.965 83.3616 173.585 84.424 173.054L86.397 171.992L86.3211 131.924C86.3211 96.4101 86.397 91.6293 87.5353 89.2769C89.5083 85.1032 94.4408 84.7237 97.2486 88.4421C98.8422 90.5669 98.8422 91.4775 99.2216 128.282C99.601 163.265 99.6769 166.225 101.043 168.881C101.802 170.474 103.168 172.22 104.078 172.827C106.582 174.648 110.908 174.268 113.564 171.992C116.448 169.639 116.448 168.956 114.019 166.983C110.225 164.024 110.225 164.403 109.846 126.537C109.466 95.5753 109.238 90.4151 108.1 87.6074C106.127 82.4472 103.851 79.8671 99.6769 77.8941C93.4543 75.0104 86.5487 75.7693 82.9821 79.7153L81.5403 81.3848L79.3396 79.4877C75.166 75.921 67.6533 75.0863 62.4172 77.5146Z" fill="#375A54"/>
<path d="M210.47 78.9564C210.318 79.26 210.394 80.0188 210.849 80.6259C211.229 81.233 211.532 87.4556 211.532 94.437V107.186H204.778C197.493 107.186 196.962 107.489 197.645 111.208C198.328 114.698 201.212 116.292 206.751 116.292H211.608L211.38 136.174L211.153 156.132L208.952 160.078C207.586 162.658 205.992 164.327 204.475 164.934C202.426 165.769 202.046 165.693 200.832 164.176C199.542 162.582 199.39 160.837 199.39 144.825C199.39 129.42 199.163 126.916 197.949 124.26C195.672 119.327 193.851 118.189 188.463 118.189C184.365 118.189 183.303 118.493 180.799 120.39C179.205 121.604 176.852 124.336 175.562 126.385L173.21 130.255L172.982 126.385C172.831 123.577 172.299 122.135 171.085 121.073C169.112 119.252 166.229 118.493 164.18 119.252C162.89 119.707 162.814 120.997 162.662 135.643C162.586 151.351 162.586 151.655 160.537 155.373C159.475 157.422 157.805 159.926 156.971 160.837C151.507 166.68 141.869 166.832 136.633 161.292C135.267 159.85 134.129 158.257 134.129 157.801C134.129 157.27 135.571 156.284 137.392 155.525C151.279 149.833 158.488 129.42 149.61 120.769C147.105 118.341 146.65 118.189 141.718 118.189C137.164 118.189 136.102 118.493 133.294 120.466C129.045 123.425 125.63 128.054 123.429 133.518C121.912 137.236 121.608 139.285 121.608 147.026C121.608 155.449 121.76 156.435 123.733 160.457C126.313 165.769 132.08 171.081 136.937 172.751C144.146 175.255 153.707 173.965 160.158 169.715C162.89 167.97 162.965 167.894 162.965 169.412C162.965 170.246 163.648 171.612 164.483 172.447C166.38 174.344 171.692 174.572 172.375 172.751C172.603 172.068 172.831 166.149 172.831 159.547C172.831 146.494 173.817 141.638 177.611 135.036C179.508 131.773 185.124 126.157 186.414 126.157C188.311 126.157 188.615 129.117 188.918 146.646C189.222 167.439 189.601 169.488 194.458 172.447C199.011 175.255 206.979 174.041 211.153 169.867L213.05 167.97L214.34 169.867C216.085 172.599 219.196 173.965 223.674 173.965C228.379 173.965 231.718 172.675 234.753 169.639L236.954 167.363L238.32 169.184C242.266 174.344 252.662 175.634 258.05 171.461C259.567 170.322 260.933 169.412 261.237 169.412C261.465 169.412 262.603 170.246 263.741 171.309C267.384 174.724 275.428 174.875 280.208 171.612C285.444 168.046 292.046 155.297 290.908 150.896C290.301 148.391 286.962 146.115 285.368 147.101C284.686 147.481 283.471 150.44 282.561 153.628C280.057 162.127 276.642 166.376 272.999 165.238C270.267 164.403 269.812 162.127 269.888 150.82C270.04 134.125 269.433 132.152 263.438 131.09C259.264 130.331 259.112 130.786 259.264 145.811L259.416 159.623L256.304 162.734C253.648 165.39 252.965 165.769 250.841 165.314C245.68 164.327 243.783 160.154 244.315 151.275C244.997 141.031 249.399 133.063 256.836 128.661C259.416 127.144 261.616 126.612 265.866 126.309C271.026 126.005 271.557 125.778 271.937 124.184C272.544 121.832 270.495 118.72 267.991 118.113C264.576 117.203 257.898 118.417 252.814 120.769C241.127 126.233 233.539 139.589 233.539 154.842C233.539 158.712 232.097 161.823 229.289 164.024C226.861 165.997 225.874 165.997 223.75 164.252C222.156 162.961 222.08 162.506 222.08 141.714C222.156 130.027 222.156 119.555 222.156 118.341V116.292H234.981C249.247 116.292 249.778 116.14 250.689 111.359C251.524 106.958 251.524 106.958 239.534 107.11C233.539 107.186 227.164 107.413 225.419 107.641C221.625 108.172 222.004 109.69 222.156 94.6647C222.232 84.8755 221.473 81.0812 219.348 79.4117C217.906 78.3494 211.077 77.9699 210.47 78.9564ZM142.476 128.054C143.994 129.875 142.932 136.933 140.428 141.486C139.289 143.611 136.937 146.418 135.267 147.633L132.232 149.833L132.004 146.95C131.473 140.879 133.901 131.773 137.013 128.206C138.455 126.612 141.186 126.537 142.476 128.054Z" fill="#375A54"/>
<path d="M58.699 188.307C58.016 189.369 64.7698 202.422 69.7782 209.934C76.1526 219.344 91.3297 234.369 100.739 240.668C135.723 263.889 178.977 267.304 217.072 250.002C234.753 241.958 253.8 225.719 264.576 209.631C270.419 200.904 273.986 193.923 273.454 192.405C272.771 190.735 271.254 192.253 268.75 196.958C252.889 227.464 221.701 250.078 186.869 256.376C176.777 258.197 157.805 258.197 147.788 256.452C111.06 249.85 79.4157 226.174 63.7833 193.619C61.1273 188.079 59.6855 186.638 58.699 188.307Z" fill="#375A54"/>
<path d="M106.051 190.584C106.051 195.213 122.367 207.961 135.495 213.653C148.547 219.192 166.532 221.014 180.419 218.13C189.829 216.157 198.252 212.894 205.992 208.113C212.443 204.167 225.191 192.784 225.191 191.039C225.191 188.535 223.37 189.521 217.83 194.833C208.193 204.243 197.569 210.466 184.972 214.184C176.852 216.536 160.309 217.144 151.658 215.398C136.937 212.439 125.25 206.292 113.943 195.744C109.997 192.101 106.658 189.142 106.431 189.142C106.203 189.142 106.051 189.749 106.051 190.584Z" fill="#375A54"/>
<path d="M235.967 206.064C232.78 209.327 231.869 211.907 233.842 211.907C235.132 211.907 241.127 205.305 241.127 203.864C241.127 201.966 239.23 202.801 235.967 206.064Z" fill="#375A54"/>
<path d="M92.0127 204.319C91.4056 205.381 97.78 212.666 99.3736 212.666C101.195 212.666 100.664 211.073 97.3247 207.127C94.3652 203.636 92.9233 202.801 92.0127 204.319Z" fill="#375A54"/>
<path d="M222.915 213.956C222.915 214.26 223.598 215.171 224.432 216.081L225.95 217.675L224.053 219.496L222.156 221.241L220.411 219.648C218.362 217.751 217.603 217.523 217.603 218.965C217.603 220.179 224.584 227.085 225.798 227.085C226.405 227.085 226.102 226.25 225.04 224.808L223.37 222.531L225.191 220.634L227.013 218.737L228.606 220.255C229.517 221.09 230.731 221.773 231.262 221.773C231.869 221.773 230.503 219.876 228.227 217.599C224.357 213.729 222.915 212.666 222.915 213.956Z" fill="#375A54"/>
<path d="M105.293 217.371C103.395 219.496 103.244 224.125 105.141 225.794C105.824 226.401 107.341 227.236 108.556 227.464C110.149 227.919 110.604 227.767 110.604 226.781C110.604 226.098 109.997 225.567 109.163 225.567C105.672 225.567 104.078 220.862 106.658 218.509C108.631 216.688 110.984 216.916 112.729 219.116C114.475 221.317 115.158 221.545 115.158 219.875C115.158 216.081 108.176 214.26 105.293 217.371Z" fill="#375A54"/>
<path d="M213.353 221.773C211.304 222.607 209.255 225.415 209.255 227.464C209.255 229.589 211.304 232.321 213.581 233.231C216.844 234.445 222.384 230.879 220.942 228.526C220.714 228.147 219.804 228.678 218.969 229.741C215.706 233.99 209.407 230.575 211.684 225.795C212.367 224.353 213.353 223.594 214.795 223.442C216.009 223.29 216.844 222.835 216.616 222.304C216.237 221.166 215.25 221.014 213.353 221.773Z" fill="#375A54"/>
<path d="M116.675 225.263C114.399 227.236 112.426 229.209 112.274 229.816C111.971 231.107 113.033 231.182 114.171 230.044C115.689 228.526 119.711 230.651 119.711 232.852C119.711 236.039 121.001 234.825 121.532 231.182C122.139 226.402 122.139 221.773 121.456 221.773C121.077 221.773 118.952 223.366 116.675 225.263ZM120.166 226.857C120.014 228.071 119.787 229.058 119.787 229.209C119.711 229.285 119.028 229.058 118.193 228.602C116.6 227.768 116.6 227.768 118.345 226.326C120.621 224.429 120.546 224.429 120.166 226.857Z" fill="#375A54"/>
<path d="M142.4 226.022C141.566 227.085 141.642 227.16 143.235 226.933C144.222 226.857 145.132 226.25 145.36 225.719C145.739 224.429 143.615 224.58 142.4 226.022Z" fill="#375A54"/>
<path d="M125.782 230.879C124.036 236.039 124.188 239.606 125.933 234.825C126.768 232.624 127.072 232.397 129.348 232.852C130.942 233.155 131.852 233.004 131.852 232.472C131.852 232.017 131.397 231.638 130.942 231.638C128.969 231.638 127.906 230.348 128.437 228.678C128.893 227.16 129.045 227.16 131.625 228.223C134.812 229.589 134.888 229.589 134.888 228.526C134.888 227.768 130.335 225.567 128.589 225.567C128.058 225.567 126.844 227.919 125.782 230.879Z" fill="#375A54"/>
<path d="M203.944 225.87C203.944 226.098 204.475 227.692 205.158 229.361C205.841 231.106 206.22 232.624 205.992 232.928C205.689 233.155 203.868 232.245 201.819 230.955C198.252 228.678 195.976 227.919 196.507 229.209C196.659 229.513 197.569 232.093 198.556 234.901C199.618 237.708 200.681 239.985 201.06 239.985C201.971 239.985 201.819 238.164 200.453 235.052C199.846 233.535 199.39 232.093 199.542 232.017C199.694 231.865 201.667 232.928 203.944 234.37C208.421 237.177 209.256 237.481 209.256 235.963C209.256 234.218 205.689 226.022 204.778 225.719C204.323 225.567 203.944 225.643 203.944 225.87Z" fill="#375A54"/>
<path d="M135.419 234.066C134.66 237.026 134.357 239.757 134.66 240.061C134.964 240.365 136.709 240.896 138.53 241.199C142.476 241.806 142.932 240.365 138.986 239.682C136.785 239.226 136.33 238.847 136.557 237.481C136.709 236.115 137.164 235.887 139.289 236.039C140.655 236.191 141.718 235.963 141.718 235.508C141.718 235.053 141.111 234.673 140.428 234.673C138.303 234.673 137.089 233.535 137.62 232.093C137.999 231.031 138.682 230.879 141.035 231.258C144.905 231.941 144.981 230.499 141.186 229.437C139.593 228.982 137.923 228.602 137.468 228.602C137.089 228.602 136.102 231.031 135.419 234.066Z" fill="#375A54"/>
<path d="M192.561 231.031C192.561 231.562 192.94 233.383 193.32 235.052C194.154 238.771 193.699 240.744 191.878 240.744C189.981 240.744 188.994 239.378 188.084 235.508C186.718 229.361 185.352 230.196 186.566 236.418C187.552 241.199 188.615 242.413 191.423 242.413C195.444 242.413 196.355 239.985 194.761 233.459C194.003 230.423 192.561 228.83 192.561 231.031Z" fill="#375A54"/>
<path d="M177.232 232.928C175.714 233.307 175.562 235.128 176.321 241.047C176.852 244.918 178.142 245.828 178.142 242.337C178.142 238.999 179.357 238.847 181.33 241.806C183.075 244.462 184.213 245.297 184.213 243.779C184.213 243.324 183.606 242.11 182.923 241.047C181.937 239.53 181.861 238.999 182.62 238.543C184.061 237.633 184.137 235.204 182.847 233.687C181.709 232.472 179.964 232.169 177.232 232.928ZM181.785 234.901C183.075 235.963 181.481 237.708 179.205 237.708C177.915 237.708 177.384 237.253 177.384 236.343C177.384 235.584 177.535 234.749 177.763 234.521C178.446 233.914 180.722 234.066 181.785 234.901Z" fill="#375A54"/>
<path d="M165.166 233.307C164.862 234.066 164.711 242.869 164.938 243.931C165.242 244.918 166.077 245.297 167.822 245.297C171.009 245.297 172.906 243.855 172.906 241.503C172.83 240.44 172.83 238.619 172.83 237.405C172.906 234.37 171.54 233.155 168.201 233.155C166.532 233.155 165.166 233.231 165.166 233.307ZM171.085 235.887C171.616 237.253 170.174 238.467 168.125 238.467C167.139 238.467 166.76 237.86 166.76 236.57C166.76 235.053 167.139 234.673 168.657 234.673C169.719 234.673 170.781 235.204 171.085 235.887ZM171.085 241.199C171.616 242.565 170.023 243.855 168.277 243.552C167.67 243.476 167.063 242.641 166.911 241.655C166.684 240.289 166.987 239.985 168.657 239.985C169.719 239.985 170.781 240.516 171.085 241.199Z" fill="#375A54"/>
<path d="M150.824 237.632C150.824 238.467 152.721 239.226 154.694 239.226C156.667 239.226 156.515 238.012 154.466 237.405C152.038 236.798 150.824 236.874 150.824 237.632Z" fill="#375A54"/>
<path d="M180.215 295.34C179.907 295.212 179.838 295.458 180.09 295.677C181.175 296.617 182.274 297.502 183.324 298.443C185.533 300.423 187.459 302.669 189.42 304.874C191.725 307.466 193.993 310.088 196.363 312.623C196.938 313.238 197.482 313.887 198.007 314.547C198.273 314.883 198.462 315.296 198.188 315.719C197.911 316.147 197.471 316.128 197.049 316.004C190.959 314.216 184.888 312.419 179.903 308.169C176.758 305.486 174.257 302.322 172.243 298.742C170.599 295.819 169.108 292.824 167.94 289.674C167.898 289.561 167.852 289.447 167.791 289.345C167.643 289.094 167.58 288.693 167.234 288.707C166.905 288.722 166.798 289.097 166.694 289.369C165.69 291.994 164.506 294.536 163.203 297.024C161.472 300.328 159.467 303.444 156.835 306.105C152.635 310.349 147.538 313.044 141.832 314.666C140.382 315.079 138.949 315.551 137.506 315.988C137.084 316.115 136.638 316.163 136.339 315.771C136.004 315.334 136.229 314.9 136.496 314.52C137.421 313.208 138.612 312.126 139.673 310.931C142.817 307.392 145.987 303.875 149.172 300.373C150.801 298.583 152.684 297.068 154.564 295.554V295.554C154.743 295.409 154.549 295.231 154.339 295.322C153.814 295.549 153.29 295.777 152.762 295.997C146.291 298.693 139.57 300.434 132.609 301.247C129.703 301.587 126.785 301.828 123.863 301.741C119.496 301.612 115.153 301.171 110.82 300.58C99.3085 299.007 88.0338 296.204 76.6309 294.07C71.8638 293.177 67.0814 292.421 62.225 292.124C59.2047 291.939 56.1874 291.919 53.1784 292.02C49.3883 292.148 45.6198 292.649 41.8554 293.138C36.4182 293.843 31.0005 294.666 25.5941 295.572C25.1784 295.642 24.652 295.686 24.5421 295.146C24.4067 294.474 24.7546 293.747 25.2698 293.506C29.2989 291.627 32.5953 288.536 36.7076 286.775C40.784 285.028 44.9681 283.731 49.3267 282.985C52.2096 282.491 55.1262 282.322 58.0429 282.13C62.1152 281.863 66.1895 281.962 70.2618 281.974C80.8643 282.005 91.2081 283.725 101.302 286.943C107.278 288.849 113.136 291.128 119.272 292.524C124.625 293.741 130.019 294.734 135.475 295.337C142.825 296.15 149.825 294.873 156.474 291.631C159.408 290.201 162.242 288.595 165.01 286.871C165.574 286.52 166.12 286.168 166.331 285.458C166.447 285.068 166.796 284.793 167.216 284.779C167.684 284.763 168.015 285.069 168.182 285.481C168.358 285.914 168.575 286.271 168.985 286.531C174.557 290.076 180.295 293.278 186.824 294.719C190.341 295.495 193.901 295.727 197.514 295.413C208.491 294.46 219.102 291.936 229.446 288.198C235.989 285.834 242.707 284.131 249.587 283.111C252.773 282.639 255.979 282.321 259.2 282.12C264.058 281.815 268.919 281.895 273.772 282.006C280.413 282.158 286.995 282.851 293.357 285.011C298.393 286.719 302.869 289.414 307.162 292.469C307.562 292.754 307.963 293.015 308.434 293.133C309.098 293.299 309.55 293.656 309.795 294.319C309.923 294.666 310.137 294.983 309.879 295.331C309.625 295.674 309.235 295.629 308.878 295.572C305.783 295.081 302.697 294.531 299.595 294.094C295.511 293.518 291.425 292.962 287.325 292.507C283.662 292.1 279.995 291.954 276.313 291.973C271.141 291.999 266.035 292.62 260.956 293.516C251.84 295.125 242.822 297.223 233.729 298.944C228.519 299.931 223.28 300.723 218 301.255C215.479 301.509 212.951 301.735 210.428 301.736C199.914 301.739 189.837 299.599 180.215 295.34V295.34ZM298.41 290.199C299.499 290.537 300.07 289.311 299.062 288.776C297.329 287.857 295.529 287.066 293.671 286.383C287.007 283.931 280.041 283.319 273.041 283.145C265.537 282.957 258.035 283.055 250.572 284.165C243.596 285.203 236.764 286.795 230.147 289.204C222.377 292.031 214.461 294.149 206.368 295.482C204.883 295.727 204.901 297.618 206.406 297.618V297.618C209.21 297.62 212.001 297.388 214.783 297.016C219.174 296.43 223.552 295.773 227.892 294.88C234.359 293.55 240.687 291.595 247.221 290.576C248.885 290.316 250.509 289.804 252.208 289.765C252.455 289.76 252.826 289.634 252.914 289.977C253.003 290.331 252.662 290.5 252.394 290.627C251.651 290.979 250.845 291.125 250.045 291.264C245.112 292.114 240.208 293.094 235.36 294.358C229.668 295.842 223.896 296.936 218.07 297.759C213.89 298.349 209.705 298.914 205.477 298.842C202.649 298.794 199.827 298.515 197.013 298.172C193.357 297.724 189.744 297.097 186.208 296.043C184.091 295.412 182.026 294.639 179.952 293.877C179.833 293.833 179.771 293.937 179.887 293.99V293.99C190.571 298.787 201.716 301.151 213.468 300.486C217.685 300.247 221.87 299.757 226.036 299.133C234.326 297.89 242.497 296.016 250.705 294.347C255.076 293.457 259.449 292.587 263.86 291.91C266.749 291.467 269.648 291.155 272.568 290.965C275.736 290.76 278.905 290.772 282.065 290.911C285.371 291.055 288.662 291.461 291.943 291.921C296.029 292.492 300.133 292.924 304.195 293.664V293.664C304.486 293.717 304.582 293.305 304.3 293.215C301.747 292.397 299.191 291.623 296.628 290.87C293.412 289.924 290.137 289.262 286.804 288.87C284.349 288.581 281.881 288.48 279.42 288.292C275.732 288.009 272.066 288.437 268.389 288.431C266.319 288.428 264.247 288.725 262.178 288.915C261.068 289.016 259.964 289.174 258.859 289.315C258.524 289.358 258.222 289.319 258.154 288.941C258.093 288.603 258.394 288.465 258.646 288.385C259.017 288.267 259.404 288.181 259.79 288.131C262.658 287.754 265.535 287.498 268.429 287.375C273.31 287.168 278.182 287.026 283.066 287.372C288.294 287.742 293.405 288.652 298.41 290.199V290.199ZM129.039 297.619C130.312 297.604 130.319 295.829 129.062 295.622V295.622C123.763 294.75 118.503 293.706 113.351 292.167C109.1 290.897 104.952 289.318 100.727 287.977C91.594 285.079 82.22 283.455 72.6561 283.151C66.3907 282.952 60.116 283.031 53.8536 283.615C47.539 284.205 41.4962 285.688 35.8168 288.545V288.545C34.6193 289.148 35.2118 290.432 36.4994 290.058C36.7991 289.971 37.0991 289.885 37.3993 289.8C41.3505 288.683 45.3653 287.921 49.4643 287.535C52.3204 287.266 55.1837 287.054 58.0368 287.124C61.0787 287.198 64.1277 287.143 67.1686 287.387C69.842 287.602 72.5145 287.803 75.1674 288.197C75.6231 288.265 76.3959 288.281 76.2984 288.955C76.1978 289.648 75.4845 289.304 75.073 289.243C69.0292 288.361 62.9383 288.33 56.8535 288.194C55.6517 288.167 54.4458 288.294 53.242 288.364C50.9862 288.497 48.7387 288.705 46.4983 289.002C40.9954 289.728 35.7583 291.494 30.4791 293.098V293.098C30.2026 293.182 30.2842 293.579 30.5707 293.541C33.3506 293.164 36.1196 292.76 38.8946 292.393C43.5211 291.781 48.1434 291.075 52.8058 290.879C58.1414 290.655 63.4791 290.839 68.7778 291.604C76.479 292.717 84.0745 294.393 91.6864 295.969C100.509 297.796 109.341 299.515 118.337 300.309C122.954 300.718 127.554 300.739 132.142 300.221C138.946 299.452 145.542 297.788 151.887 295.182C152.725 294.837 153.55 294.462 154.426 294.07C154.677 293.957 154.655 293.765 154.401 293.873V293.873C146.139 297.396 137.417 298.599 128.538 298.83C124.683 298.931 120.853 298.351 117.027 297.825C111.286 297.037 105.603 295.977 99.9879 294.568C95.6878 293.49 91.3795 292.468 87.0055 291.725C85.4035 291.452 83.7789 291.255 82.2395 290.693C81.9183 290.576 81.4667 290.4 81.5898 289.958C81.6853 289.616 82.1102 289.776 82.3924 289.762C82.6921 289.748 83.001 289.748 83.2945 289.803C86.5201 290.422 89.76 290.982 92.9651 291.697C100.346 293.343 107.642 295.381 115.164 296.38C118.328 296.799 121.48 297.346 124.667 297.523C126.125 297.604 127.583 297.636 129.039 297.619ZM174.882 297.449C174.098 296.613 172.802 297.489 173.382 298.478C177.924 306.236 184.052 310.998 191.976 313.192C192.181 313.249 192.31 312.987 192.141 312.859V312.859C191.011 312.003 189.873 311.156 188.755 310.287C188.415 310.023 188.062 309.652 188.395 309.216C188.757 308.742 189.118 309.078 189.46 309.368C190.976 310.661 192.584 311.833 194.234 312.948C194.653 313.231 195.097 313.475 195.533 313.733C195.593 313.768 195.669 313.753 195.71 313.697V313.697C195.747 313.645 195.742 313.574 195.699 313.528C195.482 313.296 195.266 313.065 195.051 312.831C193.519 311.167 191.94 309.544 190.466 307.831C187.198 304.036 183.929 300.249 180.023 297.073C177.231 294.803 174.164 292.937 171.148 290.976C170.926 290.831 170.69 291.045 170.864 291.245V291.245C172.189 292.77 173.448 294.361 174.877 295.782C175.844 296.743 176.505 298.046 177.864 298.603C178.071 298.688 178.125 298.924 178.072 299.153C178.019 299.386 177.857 299.511 177.634 299.556C177.217 299.641 176.854 299.531 176.561 299.224C175.998 298.635 175.439 298.043 174.882 297.449V297.449ZM160.133 295.249C161.048 294.286 159.986 293.141 158.871 293.864V293.864C155.129 296.29 151.786 299.187 148.759 302.452C145.52 305.945 142.558 309.685 139.203 313.075V313.075C138.901 313.381 139.22 313.582 139.59 313.363C139.838 313.217 140.079 313.07 140.311 312.911C141.978 311.768 143.624 310.597 145.144 309.261C145.417 309.02 145.716 308.854 146.025 309.131C146.382 309.452 146.194 309.795 145.946 310.085C145.811 310.242 145.628 310.36 145.461 310.488V310.488C144.608 311.144 145.204 312.317 146.201 311.909C149.62 310.511 152.699 308.496 155.449 305.877C159.137 302.365 161.569 298.041 163.659 293.487C163.764 293.258 163.54 293.078 163.382 293.274V293.274C161.753 295.298 159.888 297.104 158.142 299.02C157.803 299.392 157.422 299.671 156.877 299.562C156.655 299.518 156.486 299.404 156.422 299.174C156.359 298.947 156.403 298.692 156.607 298.618C157.882 298.152 158.467 296.937 159.343 296.06C159.609 295.793 159.873 295.523 160.133 295.249Z" fill="#375A54"/>
<path d="M255.186 301.701C262.366 301.813 269.309 303.164 276.022 305.707C276.444 305.867 276.863 306.054 277.247 306.287C277.656 306.534 278.117 306.82 278.091 307.374C278.064 307.972 277.576 308.245 277.081 308.41C276.253 308.686 275.411 308.924 274.567 309.15C270.113 310.338 265.675 311.575 261.12 312.363C252.769 313.808 244.817 312.509 237.106 309.185C235.419 308.458 233.962 307.265 232.147 306.811C231.842 306.735 231.593 306.513 231.602 306.167C231.611 305.781 231.904 305.576 232.237 305.491C233.347 305.21 234.457 304.93 235.577 304.694C239.732 303.817 243.838 302.695 248.067 302.188C250.43 301.904 252.798 301.68 255.186 301.701ZM263.115 310.868C265.032 310.493 264.694 307.895 262.747 308.058V308.058C262.45 308.083 262.188 308.036 262.079 307.732C261.966 307.415 262.188 307.221 262.412 307.058C262.803 306.773 263.262 306.787 263.716 306.787C267.308 306.788 270.899 306.788 274.491 306.785V306.785C274.662 306.785 274.695 306.543 274.535 306.484C268.258 304.175 261.813 302.906 255.14 302.859C251.029 302.83 247.018 303.42 243.044 304.236C241.218 304.611 241.363 306.641 243.227 306.608V306.608C243.558 306.602 243.892 306.609 244.221 306.64C244.482 306.664 244.686 306.815 244.717 307.089C244.747 307.365 244.559 307.551 244.328 307.641C244.137 307.716 243.916 307.742 243.709 307.742C242.049 307.747 240.389 307.754 238.729 307.734C238.376 307.729 238.024 307.651 237.654 307.606C237.249 307.557 237.181 308.007 237.555 308.168V308.168C243.046 310.526 248.737 311.966 254.753 311.852C257.437 311.802 260.094 311.445 262.731 310.943C262.859 310.918 262.987 310.894 263.115 310.868Z" fill="#375A54"/>
<path d="M79.3796 301.703C84.9061 301.681 90.2858 302.698 95.6327 303.958C97.6268 304.428 99.6311 304.856 101.63 305.309C101.894 305.369 102.157 305.446 102.405 305.55C102.663 305.657 102.878 305.841 102.892 306.148C102.906 306.459 102.699 306.645 102.446 306.772C97.1537 309.438 91.7247 311.727 85.8051 312.581C82.6051 313.042 79.398 313.042 76.1693 312.711C70.0733 312.086 64.2573 310.263 58.3727 308.728C58.1099 308.659 57.8534 308.57 57.5978 308.479C57.0478 308.283 56.4443 308.06 56.4094 307.391C56.3745 306.727 56.9533 306.41 57.4665 306.162C59.8977 304.989 62.4942 304.299 65.0897 303.617C69.7726 302.389 74.5376 301.753 79.3796 301.703ZM91.0812 306.615C93.1177 306.637 93.3133 304.515 91.3134 304.13C80.9494 302.135 70.5722 302.469 60.1044 306.376C59.8784 306.46 59.9387 306.787 60.1799 306.787V306.787C63.7114 306.787 67.2428 306.788 70.7732 306.786C71.2278 306.786 71.6866 306.772 72.0776 307.056C72.3013 307.219 72.523 307.412 72.4122 307.728C72.3044 308.034 72.0406 308.101 71.7451 308.053C70.1564 307.794 68.5544 307.939 66.9585 307.907V307.907C65.6794 307.882 65.4449 309.475 66.6824 309.799C66.8452 309.842 67.0081 309.884 67.1709 309.927C70.9702 310.915 74.827 311.597 78.7432 311.835C82.131 312.04 85.4859 311.643 88.7895 310.868C91.6244 310.203 94.3816 309.315 97.0738 308.102C97.4554 307.93 97.4316 307.516 97.0182 307.582V307.582C95.0662 307.89 93.1019 307.703 91.1448 307.738C90.607 307.747 89.7881 307.908 89.8137 307.089C89.8363 306.393 90.6101 306.61 91.0812 306.615V306.615Z" fill="#375A54"/>
<path d="M115.148 317.334C111.131 317.189 107.186 316.488 103.231 315.865C102.769 315.792 102.199 315.711 102.146 315.09C102.093 314.472 102.613 314.211 103.061 313.977C106.838 312.007 110.725 310.305 114.782 308.98C119.371 307.482 124.111 306.885 128.882 306.408C131.187 306.177 133.483 305.859 135.783 305.58C135.843 305.573 135.902 305.551 135.962 305.554C136.537 305.574 137.267 305.26 137.581 305.972C137.879 306.65 137.117 306.872 136.774 307.228C133.758 310.35 130.426 313.057 126.463 314.91C123.477 316.307 120.336 317.065 117.037 317.177C116.407 317.197 115.778 317.28 115.148 317.334ZM125.769 314.038C127.669 313.194 126.44 310.891 124.469 311.551V311.551C124.043 311.694 123.512 311.935 123.315 311.325C123.117 310.713 123.725 310.599 124.125 310.454C124.918 310.166 125.733 309.938 126.535 309.676V309.676C128.005 309.196 127.651 307.672 126.117 307.866C121.193 308.489 116.34 309.457 111.661 311.291C110.801 311.628 111.132 312.715 112.047 312.587V312.587C112.333 312.547 112.711 312.468 112.787 312.885C112.854 313.251 112.55 313.415 112.25 313.505C111.933 313.601 111.608 313.671 111.283 313.731C109.39 314.087 107.467 314.277 105.455 314.697C105.229 314.744 105.224 315.073 105.452 315.106V315.106C107.955 315.472 110.45 315.853 112.975 316.074C117.045 316.43 120.978 315.944 124.773 314.455C125.11 314.322 125.442 314.183 125.769 314.038Z" fill="#375A54"/>
<path d="M219.248 317.266C212.446 317.367 206.576 314.959 201.398 310.671C199.909 309.437 198.576 308.043 197.162 306.734C196.927 306.516 196.736 306.289 196.891 305.95C197.034 305.637 197.316 305.518 197.634 305.535C198.476 305.581 199.321 305.607 200.154 305.72C204.775 306.347 209.443 306.648 214.027 307.526C220.211 308.712 225.965 311.11 231.515 314.03C231.935 314.251 232.402 314.52 232.341 315.104C232.28 315.678 231.764 315.78 231.33 315.849C227.317 316.492 223.31 317.191 219.248 317.266ZM201.092 306.996C201.018 306.985 200.947 307.033 200.93 307.106V307.106C200.913 307.177 200.952 307.249 201.02 307.274C202.047 307.658 203.066 308.066 204.106 308.416C206.25 309.136 208.409 309.814 210.555 310.529C210.919 310.65 211.368 310.838 211.172 311.351C210.987 311.837 210.556 311.733 210.165 311.601C207.222 310.611 204.219 309.795 201.335 308.627V308.627C201.09 308.528 200.887 308.849 201.083 309.026C201.163 309.099 201.241 309.168 201.32 309.237C201.661 309.534 202.014 309.816 202.366 310.1C207.276 314.066 212.839 316.221 219.195 316.212C220.949 316.21 222.683 315.988 224.417 315.795V315.795C225.752 315.646 225.787 314.163 224.462 313.942C224.391 313.93 224.32 313.918 224.25 313.906C223.567 313.788 222.887 313.655 222.213 313.492C221.913 313.419 221.623 313.23 221.704 312.858C221.781 312.502 222.11 312.56 222.377 312.578C222.586 312.591 222.794 312.632 223.003 312.663V312.663C223.755 312.773 224.039 311.838 223.336 311.547C220.633 310.429 217.85 309.551 214.988 308.908C210.412 307.878 205.719 307.673 201.092 306.996Z" fill="#375A54"/>
<path d="M188.832 282.951C193.278 283.026 198.107 283.349 202.698 285.192C203.145 285.372 203.601 285.536 204.032 285.749C204.382 285.921 204.771 286.129 204.721 286.605C204.67 287.086 204.297 287.319 203.871 287.438C202.796 287.737 201.721 288.032 200.638 288.302C197.335 289.125 194.048 290.062 190.658 290.45C184.387 291.167 178.394 290.296 172.856 287.087C172.388 286.816 171.905 286.535 171.593 286.075C171.314 285.664 171.28 285.17 171.884 285.123C173.88 284.964 175.77 284.319 177.718 283.95C181.255 283.279 184.822 283.013 188.832 282.951ZM196.734 285.776C197.528 285.772 197.655 284.955 196.874 284.812C190.547 283.655 180.761 284.144 175.756 285.599C175.462 285.684 175.495 286.087 175.798 286.133V286.133C179.464 286.687 183.144 287.041 186.857 286.973C187.175 286.967 187.386 287.115 187.456 287.413C187.527 287.722 187.359 287.959 187.092 288.066C186.877 288.153 186.623 288.174 186.386 288.176C183.762 288.197 181.153 287.982 178.55 287.685C178.19 287.644 177.827 287.634 177.47 287.586V287.586C177.052 287.53 177.033 287.83 177.432 287.966C181.113 289.216 184.822 289.713 188.637 289.482C191.447 289.313 194.172 288.727 196.876 288.031C197.6 287.845 197.488 286.911 196.74 286.907V286.907C196.308 286.904 195.796 286.877 195.824 286.3C195.849 285.8 196.334 285.778 196.734 285.776V285.776Z" fill="#375A54"/>
<path d="M148.119 283.037C152.384 283.009 156.959 283.906 161.504 285.02C161.737 285.077 161.982 285.136 162.218 285.127C162.555 285.113 162.909 285.027 163.041 285.46C163.168 285.88 162.893 286.155 162.612 286.385C161.168 287.57 159.486 288.32 157.749 288.939C152.15 290.934 146.448 291.176 140.654 289.92C137.382 289.211 134.143 288.377 130.91 287.515C130.397 287.378 129.853 287.235 129.782 286.633C129.706 285.983 130.298 285.793 130.756 285.604C133.927 284.302 137.203 283.449 140.641 283.22C142.986 283.064 145.324 282.854 148.119 283.037ZM151.257 289.297C152.339 289.163 152.116 288.022 151.028 288.106V288.106C149.941 288.189 148.86 288.176 147.775 288.164C147.372 288.16 147.04 287.962 147.031 287.532C147.023 287.141 147.292 286.929 147.697 286.986C149.269 287.21 150.826 286.887 152.388 286.826V286.826C154.237 286.754 154.279 284.744 152.442 284.526C146.666 283.84 140.884 284.05 135.095 285.4C134.784 285.472 134.789 285.772 135.108 285.772V285.772C135.983 285.773 136.857 285.765 137.732 285.778C138.155 285.784 138.689 285.782 138.669 286.361C138.649 286.923 138.118 286.899 137.693 286.912C137.422 286.92 137.15 286.915 136.878 286.915V286.915C136.334 286.915 136.227 287.651 136.751 287.794C141.57 289.11 146.399 289.894 151.257 289.297Z" fill="#375A54"/>
<path d="M298.218 307.192C292.321 307.342 286.82 305.987 281.645 303.261C279.856 302.319 278.054 301.402 276.266 300.46C275.908 300.271 275.402 300.135 275.481 299.593C275.561 299.043 276.076 298.953 276.512 298.857C282.478 297.541 288.417 297.655 294.314 299.261C298.157 300.308 301.987 301.399 305.599 303.117C306.552 303.57 307.514 304.025 308.274 304.786C309.033 305.545 308.842 306.295 307.821 306.617C306.742 306.956 305.603 306.947 304.504 306.972C302.394 307.018 300.293 307.313 298.218 307.192ZM300.336 306.031C301.319 305.991 301.411 304.71 300.454 304.478V304.478C300.072 304.386 299.585 304.322 299.655 303.806C299.736 303.205 300.276 303.322 300.673 303.39C301.265 303.492 301.845 303.668 302.43 303.815C302.985 303.954 303.539 304.098 304.096 304.234C304.562 304.347 305.031 304.452 305.498 304.561C305.588 304.582 305.677 304.524 305.694 304.433V304.433C305.708 304.357 305.666 304.282 305.595 304.253C299.366 301.777 293.094 299.531 286.465 299.189C284.982 299.112 284.879 300.673 286.335 300.964V300.964C286.728 301.043 287.211 301.088 287.103 301.625C286.997 302.148 286.503 302.165 286.069 302.086C285.418 301.968 284.777 301.795 284.126 301.669V301.669C283.128 301.475 282.694 302.64 283.617 303.067C288.953 305.537 294.558 306.27 300.336 306.031Z" fill="#375A54"/>
<path d="M36.2262 307.265C33.3978 307.121 30.5673 307.006 27.742 306.813C26.9979 306.762 26.0189 306.779 25.8003 305.82C25.594 304.915 26.4386 304.518 27.0574 304.131C29.8735 302.366 33.0222 301.392 36.1615 300.413C39.1839 299.47 42.2381 298.663 45.3909 298.24C49.381 297.706 53.323 297.947 57.2505 298.728C57.6631 298.81 58.0911 298.868 58.4759 299.025C59.1615 299.305 59.2456 299.88 58.6206 300.224C53.0633 303.287 47.4978 306.352 41.0148 306.989C39.4282 307.145 37.8323 307.319 36.2262 307.265ZM33.9581 304.489C33.0135 304.719 33.1057 305.986 34.077 306.028C40.1765 306.289 46.0901 305.471 51.6971 302.67C52.4285 302.304 52.0648 301.337 51.2622 301.493V301.493C50.2575 301.688 49.2599 301.921 48.2532 302.101C47.8786 302.168 47.4752 302.068 47.3839 301.64C47.2802 301.158 47.6682 301.055 48.0469 300.98C48.6083 300.868 49.1625 300.724 49.7238 300.614V300.614C50.7448 300.416 50.6967 299.205 49.6567 299.202C44.0375 299.184 38.7001 300.632 33.462 302.595C32.777 302.852 32.997 303.575 33.7098 303.411V303.411C34.1234 303.315 34.7155 303.152 34.8233 303.793C34.9187 304.36 34.3645 304.391 33.9581 304.489V304.489Z" fill="#375A54"/>
<path d="M163.495 307.175C163.528 303.908 164.404 300.685 165.47 297.5C165.777 296.585 166.08 295.668 166.399 294.757C166.527 294.39 166.771 294.15 167.199 294.139C167.613 294.129 167.916 294.292 168.05 294.678C169.49 298.78 171.043 302.89 170.997 307.3C170.952 311.54 170.105 315.685 168.609 319.674C168.334 320.408 168.01 321.122 167.956 321.924C167.931 322.282 167.732 322.548 167.332 322.584C166.953 322.617 166.636 322.475 166.573 322.095C166.232 320.025 165.204 318.171 164.742 316.139C164.08 313.223 163.532 310.294 163.495 307.175ZM166.377 317.46C166.397 317.526 166.461 317.569 166.53 317.566V317.566C166.61 317.562 166.674 317.495 166.674 317.415C166.674 315.722 166.673 314.031 166.675 312.338C166.675 311.933 166.698 311.463 167.209 311.442C167.793 311.42 167.81 311.923 167.811 312.357C167.817 313.895 167.814 315.434 167.825 316.971V316.971C167.827 317.354 168.168 317.276 168.277 316.909C169.864 311.587 170.399 306.296 168.839 300.96C168.708 300.511 167.701 300.479 167.233 300.479V300.479V300.479C166.743 300.477 165.759 300.445 165.627 300.916C164.036 306.586 164.676 312.031 166.377 317.46Z" fill="#375A54"/>
<path d="M258.225 308.296C258.224 308.285 258.215 308.276 258.203 308.276C257.818 308.277 257.433 308.291 257.049 308.271C256.726 308.255 256.431 308.134 256.427 307.754C256.423 307.34 256.763 307.302 257.069 307.282C257.908 307.224 258.75 307.189 259.589 307.124C259.944 307.096 260.291 307.063 260.338 307.529C260.379 307.928 260.095 308.168 259.756 308.223C259.261 308.302 258.751 308.291 258.247 308.316C258.235 308.317 258.225 308.308 258.225 308.296V308.296Z" fill="#375A54"/>
<path d="M76.1837 308.295C76.183 308.307 76.1728 308.316 76.1606 308.315C75.6873 308.29 75.2055 308.308 74.7436 308.223C74.3701 308.154 74.0694 307.898 74.1679 307.448C74.2551 307.049 74.5805 307.099 74.8955 307.123C75.735 307.185 76.5766 307.223 77.4161 307.281C77.7219 307.301 78.0626 307.334 78.0657 307.747C78.0688 308.127 77.7742 308.255 77.451 308.27C77.0366 308.29 76.6202 308.276 76.2048 308.275C76.1937 308.275 76.1844 308.283 76.1837 308.295V308.295Z" fill="#375A54"/>
</svg>
