<svg width="336" height="533" viewBox="0 0 336 533" fill="none" xmlns="http://www.w3.org/2000/svg">
<path d="M0 0H335.144V533H0V0Z" fill="#F0DDCA"/>
<g opacity="0.1">
<path d="M167.764 62.56C167.536 62.9394 162.68 63.4706 156.912 63.6983C129.897 64.9124 102.73 76.5988 83.6829 95.1907C79.5092 99.2126 78.2951 101.413 80.0404 101.413C80.4957 101.413 83.8347 98.8332 87.4772 95.5701C94.6104 89.3475 105.007 82.1384 112.292 78.4959C128.607 70.1485 150.31 65.2919 166.018 66.4301C168.371 66.5819 167.384 69.0102 162.831 73.6392C157.899 78.8753 155.319 83.2767 154.029 88.8922L153.194 92.6865L148.11 92.9141L143.025 93.1418V107.788C143.025 125.924 143.556 127.897 150.158 134.423C155.926 140.115 159.872 141.632 168.599 141.632C179.754 141.632 187.266 137.307 191.744 128.201C194.096 123.344 194.172 122.889 194.475 111.582C194.779 100.275 194.779 99.8956 193.261 99.8956C191.819 99.8956 191.744 100.503 191.44 111.051C191.212 120.309 190.909 122.889 189.619 125.697C187.266 130.781 184.459 133.665 179.298 136.245C175.276 138.294 173.835 138.597 168.523 138.597C161.238 138.597 156.381 136.7 151.98 132.071C146.819 126.607 146.061 123.951 146.061 109.685V97.0119L148.185 96.7084C152.056 96.1772 152.663 96.7084 153.953 102.02C154.636 104.828 156.305 108.926 157.671 111.127C160.555 115.983 166.853 121.902 169.054 121.902C171.33 121.902 179.147 113.555 181.347 108.774C182.41 106.649 183.624 103.007 184.079 100.806L184.99 96.8602L189.998 96.7843C192.73 96.7084 195.993 96.7084 197.131 96.7084C203.961 96.8602 206.162 105.435 200.167 108.243C197.663 109.381 196.676 112.037 198.725 112.037C203.506 112.037 206.997 107.484 206.541 101.944C205.934 95.2666 202.064 93.0659 191.061 93.0659H184.838L184.003 89.8028C182.486 83.732 179.83 79.0271 175.125 74.0187C172.469 71.2109 170.344 68.4032 170.344 67.6443C170.344 66.4301 170.875 66.3543 176.035 66.7337C197.435 68.5549 219.897 77.8888 237.578 92.3829C249.644 102.248 261.862 117.88 268.236 131.616C272.182 139.963 272.334 140.342 273.32 140.646C277.418 142.012 268.615 123.42 259.054 110.444C240.007 84.7185 207.452 66.3543 175.959 63.6983C172.848 63.4706 170.116 62.9394 169.889 62.6359C169.357 61.8011 168.295 61.8011 167.764 62.56ZM167.309 77.5094C167.309 80.6207 167.157 80.9242 165.487 80.9242C163.287 80.9242 162.376 81.9866 163.742 83.049C164.653 83.8079 165.108 83.9597 166.55 83.9597C167.005 83.9597 167.309 84.6426 167.309 85.4774C167.309 86.6915 166.777 86.9951 164.728 86.9951C161.389 86.9951 159.72 87.678 159.72 88.9681C159.72 89.7269 160.782 90.0305 163.514 90.0305C167.081 90.0305 167.309 90.1822 167.309 91.9276C167.309 93.673 167.081 93.8247 163.59 93.8247C161.465 93.8247 159.568 94.2801 159.037 94.8113C157.823 96.4048 158.809 96.8602 163.287 96.8602C167.081 96.8602 167.309 97.0119 167.309 98.6814C167.309 100.427 166.929 100.579 163.742 100.806C161.01 100.958 160.024 101.337 159.872 102.324C159.644 103.462 160.175 103.69 163.438 103.69C167.081 103.69 167.309 103.842 167.309 105.587C167.309 107.105 166.929 107.484 165.487 107.484C163.742 107.484 162.376 109.154 163.287 110.064C163.59 110.292 164.577 110.52 165.563 110.52C167.157 110.52 167.309 110.823 167.309 114.086V117.653L164.197 114.693C162.528 113.024 160.099 109.457 158.733 106.801C156.685 102.552 156.381 101.11 156.305 95.7978C156.305 90.6376 156.609 88.8922 158.354 85.2497C160.479 80.7725 165.411 74.0946 166.626 74.0946C167.005 74.0946 167.309 75.6123 167.309 77.5094ZM174.366 77.2817C175.808 79.103 177.932 82.4419 179.147 84.7185C180.968 88.2851 181.271 89.8028 181.271 95.3424C181.347 101.11 181.12 102.324 178.919 106.725C177.553 109.457 175.125 113.024 173.455 114.693L170.344 117.653V114.162C170.344 110.899 170.496 110.595 172.469 110.368C173.683 110.216 174.518 109.685 174.518 109.002C174.518 108.319 173.683 107.788 172.469 107.636C170.799 107.408 170.344 106.953 170.344 105.511C170.344 103.842 170.647 103.69 174.214 103.69C177.477 103.69 178.008 103.462 177.781 102.324C177.629 101.337 176.642 100.958 173.911 100.806C170.723 100.579 170.344 100.427 170.344 98.6814C170.344 97.0119 170.572 96.8602 174.442 96.8602C178.615 96.8602 180.588 95.7219 178.615 94.5077C178.008 94.1283 175.959 93.8247 173.986 93.8247C170.647 93.8247 170.344 93.673 170.344 91.9276C170.344 90.1822 170.572 90.0305 174.138 90.0305C176.87 90.0305 177.932 89.7269 177.932 88.9681C177.932 87.678 176.263 86.9951 172.924 86.9951C170.875 86.9951 170.344 86.6915 170.344 85.4774C170.344 84.4908 170.875 83.9597 171.786 83.9597C173.379 83.9597 175.201 82.2143 174.366 81.4554C174.138 81.1519 173.076 80.9242 172.089 80.9242C170.496 80.9242 170.344 80.5448 170.344 77.5094C170.344 75.6123 170.647 74.0946 171.027 74.0946C171.406 74.0946 172.924 75.5364 174.366 77.2817Z" fill="#375A54"/>
<path d="M61.4485 116.515C57.6542 118.26 55.5294 120.537 53.3287 125.317C51.5834 129.036 51.5834 129.567 51.2039 165.537C50.8245 204.997 50.8245 204.921 46.6508 205.908C43.7672 206.591 43.6154 206.742 44.526 209.171C45.5126 211.978 47.182 212.965 51.1281 212.965C53.2529 212.965 54.7706 212.358 56.5918 210.916C61.4485 206.818 61.3726 207.273 61.8279 166.144L62.2073 128.884L64.0286 126.911C66.8363 123.951 72.0724 124.407 73.666 127.746C74.0454 128.505 74.5007 147.855 74.7284 170.849L75.1078 212.585L78.295 212.813C80.0404 212.965 82.3928 212.585 83.4552 212.054L85.4282 210.992L85.3523 170.924C85.3523 135.41 85.4282 130.629 86.5665 128.277C88.5395 124.103 93.4721 123.724 96.2798 127.442C97.8734 129.567 97.8734 130.478 98.2528 167.282C98.6323 202.265 98.7082 205.225 100.074 207.881C100.833 209.474 102.199 211.22 103.11 211.827C105.614 213.648 109.939 213.268 112.595 210.992C115.479 208.639 115.479 207.956 113.05 205.983C109.256 203.024 109.256 203.403 108.877 165.537C108.497 134.575 108.27 129.415 107.131 126.607C105.158 121.447 102.882 118.867 98.7082 116.894C92.4856 114.01 85.58 114.769 82.0134 118.715L80.5716 120.385L78.3709 118.488C74.1972 114.921 66.6846 114.086 61.4485 116.515Z" fill="#375A54"/>
<path d="M209.501 117.956C209.349 118.26 209.425 119.019 209.88 119.626C210.26 120.233 210.563 126.456 210.563 133.437V146.186H203.809C196.524 146.186 195.993 146.489 196.676 150.208C197.359 153.698 200.243 155.292 205.782 155.292H210.639L210.411 175.174L210.184 195.132L207.983 199.078C206.617 201.658 205.024 203.327 203.506 203.934C201.457 204.769 201.078 204.693 199.863 203.176C198.573 201.582 198.422 199.837 198.422 183.825C198.422 168.42 198.194 165.916 196.98 163.26C194.703 158.327 192.882 157.189 187.494 157.189C183.396 157.189 182.334 157.493 179.83 159.39C178.236 160.604 175.884 163.336 174.594 165.385L172.241 169.255L172.014 165.385C171.862 162.577 171.331 161.135 170.116 160.073C168.143 158.252 165.26 157.493 163.211 158.252C161.921 158.707 161.845 159.997 161.693 174.643C161.617 190.351 161.617 190.655 159.568 194.373C158.506 196.422 156.836 198.926 156.002 199.837C150.538 205.68 140.901 205.832 135.664 200.292C134.299 198.85 133.16 197.257 133.16 196.801C133.16 196.27 134.602 195.284 136.423 194.525C150.31 188.833 157.519 168.42 148.641 159.769C146.137 157.341 145.681 157.189 140.749 157.189C136.196 157.189 135.133 157.493 132.325 159.466C128.076 162.425 124.661 167.054 122.46 172.518C120.943 176.236 120.639 178.285 120.639 186.026C120.639 194.449 120.791 195.435 122.764 199.457C125.344 204.769 131.111 210.081 135.968 211.751C143.177 214.255 152.739 212.965 159.189 208.715C161.921 206.97 161.997 206.894 161.997 208.412C161.997 209.246 162.68 210.612 163.514 211.447C165.411 213.344 170.723 213.572 171.406 211.751C171.634 211.068 171.862 205.149 171.862 198.547C171.862 185.494 172.848 180.638 176.643 174.036C178.54 170.773 184.155 165.157 185.445 165.157C187.342 165.157 187.646 168.117 187.949 185.646C188.253 206.439 188.632 208.488 193.489 211.447C198.042 214.255 206.01 213.041 210.184 208.867L212.081 206.97L213.371 208.867C215.116 211.599 218.228 212.965 222.705 212.965C227.41 212.965 230.749 211.675 233.784 208.639L235.985 206.363L237.351 208.184C241.297 213.344 251.693 214.634 257.081 210.461C258.599 209.322 259.965 208.412 260.268 208.412C260.496 208.412 261.634 209.246 262.772 210.309C266.415 213.724 274.459 213.875 279.239 210.612C284.476 207.046 291.078 194.297 289.939 189.896C289.332 187.391 285.993 185.115 284.4 186.101C283.717 186.481 282.503 189.44 281.592 192.628C279.088 201.127 275.673 205.376 272.03 204.238C269.298 203.403 268.843 201.127 268.919 189.82C269.071 173.125 268.464 171.152 262.469 170.09C258.295 169.331 258.143 169.786 258.295 184.811L258.447 198.623L255.336 201.734C252.68 204.39 251.997 204.769 249.872 204.314C244.712 203.327 242.815 199.154 243.346 190.275C244.029 180.031 248.43 172.063 255.867 167.661C258.447 166.144 260.648 165.612 264.897 165.309C270.057 165.005 270.589 164.778 270.968 163.184C271.575 160.832 269.526 157.72 267.022 157.113C263.607 156.203 256.929 157.417 251.845 159.769C240.159 165.233 232.57 178.589 232.57 193.842C232.57 197.712 231.128 200.823 228.32 203.024C225.892 204.997 224.906 204.997 222.781 203.252C221.187 201.961 221.111 201.506 221.111 180.714C221.187 169.027 221.187 158.555 221.187 157.341V155.292H234.012C248.278 155.292 248.809 155.14 249.72 150.359C250.555 145.958 250.555 145.958 238.565 146.11C232.57 146.186 226.196 146.413 224.45 146.641C220.656 147.172 221.035 148.69 221.187 133.665C221.263 123.875 220.504 120.081 218.379 118.412C216.938 117.349 210.108 116.97 209.501 117.956ZM141.508 167.054C143.025 168.875 141.963 175.933 139.459 180.486C138.32 182.611 135.968 185.418 134.299 186.633L131.263 188.833L131.035 185.95C130.504 179.879 132.933 170.773 136.044 167.206C137.486 165.612 140.218 165.537 141.508 167.054Z" fill="#375A54"/>
<path d="M57.7302 227.307C57.0473 228.369 63.801 241.422 68.8095 248.934C75.1838 258.344 90.3609 273.369 99.7707 279.668C134.754 302.889 178.008 306.304 216.103 289.002C233.784 280.958 252.831 264.718 263.607 248.631C269.45 239.904 273.017 232.923 272.486 231.405C271.803 229.735 270.285 231.253 267.781 235.958C251.921 266.464 220.732 289.078 185.901 295.376C175.808 297.197 156.836 297.197 146.82 295.452C110.091 288.85 78.4469 265.174 62.8145 232.619C60.1586 227.079 58.7167 225.638 57.7302 227.307Z" fill="#375A54"/>
<path d="M105.083 229.584C105.083 234.213 121.398 246.961 134.526 252.653C147.578 258.192 165.563 260.014 179.45 257.13C188.86 255.157 197.283 251.894 205.024 247.113C211.474 243.167 224.223 231.784 224.223 230.039C224.223 227.535 222.401 228.521 216.862 233.833C207.224 243.243 196.6 249.466 184.003 253.184C175.884 255.536 159.341 256.144 150.69 254.398C135.968 251.439 124.282 245.292 112.975 234.744C109.029 231.101 105.69 228.142 105.462 228.142C105.234 228.142 105.083 228.749 105.083 229.584Z" fill="#375A54"/>
<path d="M234.998 245.064C231.811 248.327 230.901 250.907 232.874 250.907C234.164 250.907 240.159 244.305 240.159 242.864C240.159 240.966 238.261 241.801 234.998 245.064Z" fill="#375A54"/>
<path d="M91.044 243.319C90.4369 244.381 96.8113 251.666 98.4048 251.666C100.226 251.666 99.6949 250.073 96.3559 246.127C93.3964 242.636 91.9546 241.801 91.044 243.319Z" fill="#375A54"/>
<path d="M221.946 252.956C221.946 253.26 222.629 254.171 223.464 255.081L224.981 256.675L223.084 258.496L221.187 260.241L219.442 258.648C217.393 256.751 216.634 256.523 216.634 257.965C216.634 259.179 223.615 266.085 224.83 266.085C225.437 266.085 225.133 265.25 224.071 263.808L222.401 261.531L224.223 259.634L226.044 257.737L227.637 259.255C228.548 260.09 229.762 260.773 230.293 260.773C230.9 260.773 229.535 258.875 227.258 256.599C223.388 252.729 221.946 251.666 221.946 252.956Z" fill="#375A54"/>
<path d="M104.324 256.371C102.427 258.496 102.275 263.125 104.172 264.794C104.855 265.401 106.373 266.236 107.587 266.464C109.18 266.919 109.636 266.767 109.636 265.781C109.636 265.098 109.029 264.567 108.194 264.567C104.703 264.567 103.11 259.862 105.69 257.509C107.663 255.688 110.015 255.916 111.761 258.116C113.506 260.317 114.189 260.545 114.189 258.875C114.189 255.081 107.207 253.26 104.324 256.371Z" fill="#375A54"/>
<path d="M212.385 260.773C210.336 261.607 208.287 264.415 208.287 266.464C208.287 268.589 210.336 271.321 212.612 272.231C215.875 273.445 221.415 269.879 219.973 267.526C219.745 267.147 218.835 267.678 218 268.741C214.737 272.99 208.439 269.575 210.715 264.795C211.398 263.353 212.385 262.594 213.826 262.442C215.041 262.29 215.875 261.835 215.648 261.304C215.268 260.166 214.282 260.014 212.385 260.773Z" fill="#375A54"/>
<path d="M115.707 264.263C113.43 266.236 111.457 268.209 111.305 268.816C111.002 270.106 112.064 270.182 113.202 269.044C114.72 267.526 118.742 269.651 118.742 271.852C118.742 275.039 120.032 273.825 120.563 270.182C121.17 265.402 121.17 260.773 120.487 260.773C120.108 260.773 117.983 262.366 115.707 264.263ZM119.197 265.857C119.046 267.071 118.818 268.058 118.818 268.209C118.742 268.285 118.059 268.058 117.224 267.602C115.631 266.768 115.631 266.768 117.376 265.326C119.653 263.429 119.577 263.429 119.197 265.857Z" fill="#375A54"/>
<path d="M141.432 265.022C140.597 266.085 140.673 266.16 142.266 265.933C143.253 265.857 144.164 265.25 144.391 264.719C144.771 263.429 142.646 263.58 141.432 265.022Z" fill="#375A54"/>
<path d="M124.813 269.879C123.067 275.039 123.219 278.606 124.965 273.825C125.799 271.624 126.103 271.397 128.379 271.852C129.973 272.155 130.884 272.004 130.884 271.472C130.884 271.017 130.428 270.638 129.973 270.638C128 270.638 126.938 269.348 127.469 267.678C127.924 266.16 128.076 266.16 130.656 267.223C133.843 268.589 133.919 268.589 133.919 267.526C133.919 266.768 129.366 264.567 127.621 264.567C127.089 264.567 125.875 266.919 124.813 269.879Z" fill="#375A54"/>
<path d="M202.975 264.87C202.975 265.098 203.506 266.692 204.189 268.361C204.872 270.106 205.251 271.624 205.024 271.928C204.72 272.155 202.899 271.245 200.85 269.955C197.283 267.678 195.007 266.919 195.538 268.209C195.69 268.513 196.6 271.093 197.587 273.901C198.649 276.708 199.712 278.985 200.091 278.985C201.002 278.985 200.85 277.164 199.484 274.052C198.877 272.535 198.422 271.093 198.573 271.017C198.725 270.865 200.698 271.928 202.975 273.369C207.452 276.177 208.287 276.481 208.287 274.963C208.287 273.218 204.72 265.022 203.81 264.719C203.354 264.567 202.975 264.643 202.975 264.87Z" fill="#375A54"/>
<path d="M134.45 273.066C133.692 276.026 133.388 278.757 133.692 279.061C133.995 279.365 135.74 279.896 137.562 280.199C141.508 280.806 141.963 279.365 138.017 278.682C135.816 278.226 135.361 277.847 135.589 276.481C135.74 275.115 136.196 274.887 138.321 275.039C139.686 275.191 140.749 274.963 140.749 274.508C140.749 274.053 140.142 273.673 139.459 273.673C137.334 273.673 136.12 272.535 136.651 271.093C137.03 270.031 137.713 269.879 140.066 270.258C143.936 270.941 144.012 269.499 140.218 268.437C138.624 267.982 136.955 267.602 136.499 267.602C136.12 267.602 135.133 270.031 134.45 273.066Z" fill="#375A54"/>
<path d="M191.592 270.03C191.592 270.562 191.971 272.383 192.351 274.052C193.186 277.771 192.73 279.744 190.909 279.744C189.012 279.744 188.025 278.378 187.115 274.508C185.749 268.361 184.383 269.196 185.597 275.418C186.584 280.199 187.646 281.413 190.454 281.413C194.476 281.413 195.386 278.985 193.793 272.459C193.034 269.423 191.592 267.83 191.592 270.03Z" fill="#375A54"/>
<path d="M176.263 271.928C174.745 272.307 174.594 274.128 175.352 280.047C175.884 283.918 177.174 284.828 177.174 281.337C177.174 277.999 178.388 277.847 180.361 280.806C182.106 283.462 183.244 284.297 183.244 282.779C183.244 282.324 182.637 281.11 181.954 280.047C180.968 278.53 180.892 277.999 181.651 277.543C183.093 276.633 183.169 274.204 181.878 272.687C180.74 271.472 178.995 271.169 176.263 271.928ZM180.816 273.901C182.106 274.963 180.513 276.708 178.236 276.708C176.946 276.708 176.415 276.253 176.415 275.343C176.415 274.584 176.567 273.749 176.794 273.521C177.477 272.914 179.754 273.066 180.816 273.901Z" fill="#375A54"/>
<path d="M164.197 272.307C163.894 273.066 163.742 281.869 163.97 282.931C164.273 283.918 165.108 284.297 166.853 284.297C170.04 284.297 171.937 282.855 171.937 280.503C171.862 279.44 171.862 277.619 171.862 276.405C171.937 273.37 170.572 272.155 167.233 272.155C165.563 272.155 164.197 272.231 164.197 272.307ZM170.116 274.887C170.647 276.253 169.206 277.467 167.157 277.467C166.17 277.467 165.791 276.86 165.791 275.57C165.791 274.053 166.17 273.673 167.688 273.673C168.75 273.673 169.813 274.204 170.116 274.887ZM170.116 280.199C170.647 281.565 169.054 282.855 167.308 282.552C166.701 282.476 166.094 281.641 165.943 280.655C165.715 279.289 166.018 278.985 167.688 278.985C168.75 278.985 169.813 279.516 170.116 280.199Z" fill="#375A54"/>
<path d="M149.855 276.632C149.855 277.467 151.752 278.226 153.725 278.226C155.698 278.226 155.546 277.012 153.497 276.405C151.069 275.798 149.855 275.874 149.855 276.632Z" fill="#375A54"/>
<path d="M180.702 334.752C180.394 334.623 180.325 334.87 180.577 335.089C181.661 336.029 182.761 336.914 183.811 337.854C186.02 339.835 187.945 342.08 189.907 344.286C192.212 346.877 194.48 349.499 196.849 352.034C197.425 352.65 197.969 353.298 198.494 353.958C198.759 354.294 198.949 354.708 198.675 355.13C198.398 355.558 197.958 355.54 197.536 355.416C191.446 353.628 185.375 351.831 180.39 347.58C177.244 344.897 174.743 341.733 172.73 338.154C171.086 335.231 169.595 332.235 168.427 329.085C168.385 328.973 168.338 328.859 168.278 328.756C168.13 328.506 168.066 328.104 167.721 328.119C167.392 328.133 167.284 328.509 167.181 328.781C166.177 331.406 164.993 333.947 163.689 336.436C161.959 339.739 159.954 342.855 157.321 345.516C153.122 349.761 148.025 352.456 142.319 354.077C140.869 354.49 139.435 354.962 137.992 355.399C137.571 355.526 137.125 355.575 136.826 355.183C136.491 354.745 136.716 354.311 136.983 353.932C137.908 352.619 139.099 351.537 140.16 350.343C143.303 346.803 146.474 343.286 149.659 339.784C151.288 337.995 153.171 336.48 155.051 334.965V334.965C155.23 334.821 155.036 334.643 154.826 334.734C154.301 334.961 153.777 335.189 153.249 335.408C146.777 338.104 140.057 339.845 133.096 340.659C130.19 340.999 127.272 341.24 124.35 341.152C119.983 341.023 115.64 340.583 111.307 339.992C99.7954 338.418 88.5207 335.616 77.1177 333.481C72.3506 332.588 67.5682 331.833 62.7118 331.535C59.6915 331.35 56.6743 331.33 53.6652 331.432C49.8752 331.56 46.1067 332.061 42.3423 332.549C36.9051 333.254 31.4874 334.077 26.0809 334.983C25.6653 335.053 25.1388 335.097 25.029 334.558C24.8935 333.885 25.2414 333.159 25.7566 332.918C29.7858 331.038 33.0822 327.947 37.1945 326.186C41.2708 324.439 45.455 323.142 49.8136 322.396C52.6964 321.903 55.6131 321.733 58.5298 321.541C62.602 321.274 66.6764 321.373 70.7486 321.385C81.3511 321.416 91.695 323.136 101.788 326.355C107.764 328.26 113.622 330.54 119.759 331.935C125.112 333.153 130.506 334.145 135.961 334.748C143.312 335.561 150.312 334.285 156.961 331.043C159.895 329.612 162.729 328.007 165.497 326.283C166.061 325.932 166.607 325.58 166.817 324.87C166.933 324.48 167.282 324.204 167.703 324.19C168.171 324.175 168.502 324.481 168.669 324.892C168.844 325.325 169.062 325.682 169.471 325.942C175.044 329.488 180.782 332.69 187.311 334.131C190.828 334.907 194.387 335.138 198.001 334.824C208.978 333.871 219.589 331.347 229.933 327.61C236.476 325.245 243.194 323.543 250.074 322.522C253.26 322.05 256.466 321.732 259.686 321.531C264.545 321.226 269.406 321.306 274.259 321.417C280.9 321.569 287.482 322.263 293.844 324.422C298.88 326.131 303.356 328.826 307.648 331.88C308.049 332.165 308.45 332.426 308.921 332.544C309.585 332.71 310.037 333.067 310.282 333.73C310.41 334.077 310.624 334.394 310.366 334.742C310.112 335.085 309.722 335.04 309.364 334.983C306.27 334.493 303.184 333.943 300.082 333.506C295.998 332.93 291.912 332.374 287.812 331.918C284.149 331.512 280.482 331.366 276.8 331.384C271.628 331.41 266.521 332.032 261.442 332.928C252.327 334.536 243.309 336.635 234.216 338.356C229.006 339.342 223.767 340.134 218.486 340.666C215.966 340.921 213.438 341.146 210.915 341.147C200.4 341.15 190.323 339.011 180.702 334.752V334.752ZM298.896 329.611C299.986 329.948 300.557 328.722 299.549 328.188C297.816 327.268 296.016 326.477 294.158 325.794C287.493 323.342 280.528 322.731 273.528 322.556C266.024 322.368 258.522 322.466 251.058 323.576C244.083 324.614 237.251 326.207 230.633 328.615C222.864 331.443 214.948 333.561 206.854 334.894C205.37 335.138 205.388 337.029 206.893 337.03V337.03C209.696 337.032 212.488 336.799 215.27 336.427C219.661 335.841 224.039 335.185 228.379 334.292C234.845 332.962 241.173 331.007 247.708 329.988C249.372 329.728 250.996 329.216 252.694 329.177C252.942 329.172 253.313 329.045 253.4 329.388C253.49 329.742 253.149 329.912 252.881 330.039C252.138 330.391 251.331 330.537 250.532 330.675C245.599 331.525 240.695 332.505 235.847 333.769C230.155 335.253 224.382 336.347 218.557 337.17C214.377 337.761 210.192 338.325 205.964 338.253C203.135 338.205 200.314 337.927 197.5 337.583C193.843 337.136 190.231 336.509 186.694 335.455C184.577 334.824 182.512 334.05 180.439 333.288C180.32 333.244 180.258 333.348 180.374 333.401V333.401C191.058 338.199 202.203 340.562 213.954 339.897C218.171 339.658 222.357 339.169 226.523 338.545C234.813 337.302 242.984 335.428 251.192 333.758C255.563 332.868 259.936 331.998 264.347 331.322C267.236 330.878 270.135 330.566 273.055 330.377C276.223 330.171 279.392 330.184 282.552 330.322C285.858 330.467 289.149 330.872 292.43 331.332C296.515 331.904 300.619 332.336 304.682 333.076V333.076C304.973 333.129 305.069 332.717 304.787 332.626C302.234 331.809 299.678 331.034 297.115 330.281C293.898 329.336 290.624 328.674 287.291 328.282C284.835 327.992 282.368 327.892 279.907 327.703C276.219 327.421 272.553 327.849 268.876 327.843C266.806 327.84 264.734 328.136 262.665 328.326C261.555 328.428 260.451 328.586 259.346 328.726C259.011 328.769 258.708 328.73 258.641 328.353C258.58 328.014 258.881 327.877 259.133 327.796C259.504 327.678 259.891 327.592 260.277 327.542C263.145 327.165 266.022 326.91 268.916 326.787C273.797 326.579 278.668 326.438 283.552 326.784C288.78 327.153 293.892 328.063 298.896 329.611V329.611ZM129.525 337.03C130.799 337.015 130.806 335.241 129.549 335.034V335.034C124.25 334.161 118.99 333.118 113.838 331.578C109.587 330.309 105.439 328.729 101.214 327.388C92.0808 324.491 82.7068 322.866 73.1429 322.562C66.8775 322.363 60.6028 322.442 54.3405 323.026C48.0258 323.616 41.9831 325.099 36.3037 327.957V327.957C35.1061 328.559 35.6987 329.843 36.9863 329.47C37.286 329.383 37.5859 329.297 37.8862 329.212C41.8374 328.094 45.8522 327.333 49.9511 326.947C52.8073 326.678 55.6706 326.465 58.5236 326.535C61.5655 326.609 64.6146 326.555 67.6554 326.799C70.3289 327.013 73.0013 327.215 75.6542 327.609C76.1099 327.676 76.8827 327.693 76.7852 328.366C76.6846 329.06 75.9714 328.715 75.5598 328.654C69.5161 327.773 63.4251 327.741 57.3403 327.606C56.1385 327.579 54.9327 327.705 53.7288 327.776C51.4731 327.908 49.2255 328.117 46.9852 328.413C41.4823 329.14 36.2452 330.905 30.966 332.509V332.509C30.6894 332.593 30.7711 332.991 31.0575 332.952C33.8374 332.576 36.6064 332.172 39.3815 331.804C44.0079 331.192 48.6303 330.486 53.2927 330.29C58.6283 330.067 63.966 330.25 69.2646 331.016C76.9658 332.128 84.5613 333.804 92.1732 335.381C100.996 337.207 109.828 338.926 118.824 339.721C123.441 340.129 128.041 340.151 132.629 339.633C139.433 338.864 146.029 337.199 152.374 334.593C153.212 334.249 154.037 333.873 154.913 333.481C155.164 333.369 155.141 333.176 154.888 333.284V333.284C146.625 336.807 137.904 338.01 129.025 338.242C125.17 338.342 121.34 337.763 117.514 337.236C111.773 336.448 106.09 335.389 100.475 333.98C96.1747 332.901 91.8663 331.879 87.4924 331.136C85.8903 330.863 84.2658 330.666 82.7263 330.105C82.4051 329.988 81.9535 329.811 82.0767 329.37C82.1721 329.027 82.597 329.187 82.8792 329.174C83.1789 329.159 83.4878 329.159 83.7813 329.215C87.0069 329.834 90.2469 330.393 93.452 331.108C100.833 332.754 108.129 334.793 115.65 335.791C118.814 336.211 121.967 336.758 125.154 336.934C126.612 337.015 128.069 337.047 129.525 337.03ZM175.368 336.861C174.584 336.024 173.289 336.901 173.868 337.89C178.411 345.647 184.539 350.41 192.463 352.603C192.668 352.66 192.797 352.398 192.627 352.27V352.27C191.497 351.414 190.36 350.568 189.242 349.698C188.902 349.435 188.549 349.063 188.881 348.628C189.244 348.154 189.605 348.489 189.947 348.78C191.463 350.073 193.071 351.245 194.721 352.359C195.14 352.642 195.584 352.887 196.02 353.145C196.079 353.18 196.156 353.164 196.196 353.108V353.108C196.234 353.056 196.229 352.986 196.186 352.939C195.969 352.708 195.752 352.476 195.538 352.242C194.006 350.579 192.427 348.955 190.952 347.242C187.685 343.447 184.416 339.66 180.51 336.485C177.717 334.215 174.651 332.348 171.635 330.387C171.413 330.242 171.177 330.456 171.351 330.657V330.657C172.675 332.182 173.935 333.772 175.364 335.194C176.331 336.154 176.992 337.458 178.351 338.014C178.558 338.099 178.611 338.335 178.559 338.564C178.506 338.797 178.344 338.922 178.121 338.967C177.704 339.053 177.341 338.943 177.047 338.635C176.485 338.047 175.926 337.455 175.368 336.861V336.861ZM160.619 334.66C161.535 333.697 160.473 332.553 159.357 333.276V333.276C155.616 335.702 152.273 338.598 149.246 341.864C146.007 345.356 143.045 349.097 139.69 352.487V352.487C139.388 352.793 139.707 352.994 140.077 352.775C140.325 352.628 140.566 352.481 140.798 352.322C142.465 351.179 144.111 350.008 145.631 348.672C145.904 348.432 146.203 348.266 146.512 348.543C146.869 348.864 146.681 349.207 146.433 349.496C146.298 349.653 146.114 349.771 145.948 349.899V349.899C145.094 350.555 145.691 351.728 146.687 351.321C150.107 349.923 153.186 347.907 155.936 345.288C159.624 341.776 162.056 337.453 164.146 332.898C164.25 332.669 164.027 332.49 163.869 332.686V332.686C162.24 334.709 160.375 336.516 158.629 338.432C158.29 338.803 157.908 339.082 157.363 338.974C157.142 338.93 156.972 338.816 156.909 338.586C156.846 338.359 156.89 338.103 157.093 338.029C158.369 337.564 158.954 336.348 159.83 335.471C160.096 335.204 160.36 334.934 160.619 334.66Z" fill="#375A54"/>
<path d="M255.673 341.112C262.853 341.224 269.797 342.575 276.51 345.118C276.932 345.278 277.35 345.465 277.734 345.698C278.144 345.945 278.604 346.232 278.579 346.786C278.551 347.383 278.064 347.656 277.569 347.821C276.741 348.097 275.898 348.335 275.055 348.561C270.601 349.75 266.163 350.986 261.607 351.774C253.256 353.219 245.305 351.92 237.593 348.596C235.906 347.869 234.45 346.676 232.634 346.222C232.33 346.146 232.08 345.925 232.089 345.579C232.099 345.192 232.391 344.988 232.725 344.903C233.834 344.621 234.945 344.341 236.064 344.105C240.22 343.229 244.326 342.106 248.555 341.599C250.918 341.316 253.285 341.091 255.673 341.112ZM263.603 350.28C265.52 349.904 265.181 347.306 263.235 347.469V347.469C262.937 347.494 262.676 347.448 262.567 347.143C262.454 346.827 262.676 346.633 262.899 346.47C263.29 346.184 263.749 346.199 264.204 346.199C267.796 346.2 271.387 346.2 274.979 346.197V346.197C275.149 346.197 275.182 345.954 275.022 345.896C268.745 343.586 262.3 342.318 255.627 342.27C251.516 342.241 247.505 342.831 243.531 343.647C241.705 344.022 241.85 346.052 243.714 346.019V346.019C244.046 346.013 244.379 346.02 244.709 346.051C244.969 346.076 245.173 346.226 245.204 346.5C245.235 346.776 245.046 346.962 244.815 347.053C244.624 347.127 244.404 347.153 244.196 347.153C242.537 347.158 240.876 347.165 239.217 347.145C238.863 347.141 238.511 347.062 238.141 347.018C237.737 346.969 237.668 347.418 238.043 347.579V347.579C243.533 349.937 249.224 351.377 255.24 351.263C257.925 351.213 260.582 350.856 263.219 350.354C263.347 350.33 263.475 350.305 263.603 350.28Z" fill="#375A54"/>
<path d="M79.8662 341.114C85.3927 341.092 90.7724 342.109 96.1193 343.369C98.1134 343.839 100.118 344.267 102.117 344.721C102.381 344.78 102.643 344.857 102.892 344.961C103.149 345.069 103.365 345.252 103.378 345.559C103.393 345.87 103.185 346.056 102.933 346.183C97.6403 348.85 92.2113 351.138 86.2917 351.992C83.0918 352.454 79.8847 352.454 76.656 352.122C70.5599 351.497 64.744 349.675 58.8593 348.139C58.5966 348.071 58.34 347.981 58.0845 347.89C57.5344 347.694 56.9309 347.471 56.896 346.802C56.8611 346.138 57.44 345.821 57.9531 345.574C60.3843 344.401 62.9808 343.71 65.5763 343.028C70.2592 341.8 75.0242 341.165 79.8662 341.114ZM91.5678 346.026C93.6043 346.048 93.8 343.926 91.8001 343.541C81.436 341.546 71.0588 341.88 60.591 345.787C60.365 345.871 60.4254 346.199 60.6666 346.199V346.199C64.198 346.199 67.7294 346.2 71.2598 346.198C71.7145 346.198 72.1732 346.183 72.5642 346.468C72.7879 346.631 73.0096 346.824 72.8988 347.14C72.791 347.446 72.5273 347.512 72.2317 347.464C70.643 347.205 69.041 347.35 67.4451 347.318V347.318C66.1661 347.293 65.9315 348.886 67.1691 349.211C67.3319 349.253 67.4947 349.296 67.6576 349.338C71.4569 350.326 75.3136 351.009 79.2299 351.246C82.6176 351.451 85.9725 351.054 89.2761 350.279C92.1111 349.614 94.8682 348.726 97.5605 347.513C97.9421 347.342 97.9182 346.927 97.5048 346.993V346.993C95.5528 347.301 93.5886 347.114 91.6314 347.149C91.0937 347.158 90.2747 347.319 90.3004 346.5C90.3229 345.805 91.0967 346.021 91.5678 346.026V346.026Z" fill="#375A54"/>
<path d="M115.635 356.746C111.618 356.6 107.673 355.899 103.718 355.276C103.256 355.203 102.686 355.122 102.633 354.501C102.581 353.884 103.1 353.623 103.548 353.389C107.325 351.418 111.213 349.717 115.27 348.392C119.858 346.894 124.598 346.296 129.37 345.819C131.675 345.588 133.97 345.27 136.27 344.992C136.33 344.985 136.389 344.962 136.449 344.965C137.025 344.986 137.754 344.672 138.068 345.384C138.366 346.061 137.604 346.284 137.262 346.639C134.245 349.761 130.913 352.468 126.951 354.322C123.964 355.719 120.823 356.477 117.524 356.589C116.894 356.608 116.265 356.692 115.635 356.746ZM126.257 353.449C128.156 352.606 126.927 350.302 124.957 350.963V350.963C124.531 351.105 123.999 351.347 123.802 350.737C123.604 350.124 124.213 350.01 124.612 349.866C125.405 349.577 126.22 349.35 127.022 349.088V349.088C128.492 348.608 128.138 347.084 126.604 347.278C121.68 347.9 116.827 348.869 112.148 350.703C111.288 351.04 111.62 352.126 112.534 351.998V351.998C112.82 351.958 113.198 351.879 113.274 352.297C113.341 352.662 113.037 352.827 112.738 352.917C112.421 353.012 112.095 353.082 111.77 353.143C109.877 353.498 107.954 353.688 105.942 354.109C105.716 354.156 105.711 354.485 105.94 354.518V354.518C108.442 354.883 110.938 355.265 113.462 355.486C117.532 355.842 121.465 355.355 125.26 353.866C125.597 353.734 125.929 353.595 126.257 353.449Z" fill="#375A54"/>
<path d="M219.736 356.677C212.934 356.779 207.064 354.37 201.886 350.082C200.397 348.849 199.064 347.455 197.65 346.145C197.415 345.928 197.224 345.7 197.379 345.361C197.521 345.048 197.804 344.929 198.122 344.947C198.963 344.993 199.809 345.019 200.641 345.132C205.263 345.759 209.931 346.059 214.514 346.938C220.699 348.123 226.453 350.522 232.002 353.441C232.423 353.663 232.89 353.932 232.828 354.516C232.768 355.09 232.252 355.191 231.817 355.261C227.805 355.903 223.798 356.602 219.736 356.677ZM201.58 346.407C201.505 346.396 201.435 346.444 201.417 346.518V346.518C201.401 346.588 201.439 346.66 201.507 346.686C202.534 347.07 203.554 347.478 204.593 347.828C206.737 348.548 208.897 349.225 211.043 349.941C211.407 350.062 211.855 350.25 211.659 350.763C211.475 351.248 211.044 351.145 210.653 351.012C207.709 350.023 204.706 349.207 201.822 348.039V348.039C201.577 347.94 201.375 348.26 201.571 348.438C201.651 348.51 201.729 348.58 201.808 348.649C202.149 348.945 202.502 349.227 202.854 349.512C207.764 353.477 213.327 355.632 219.683 355.623C221.437 355.621 223.171 355.399 224.904 355.207V355.207C226.239 355.058 226.275 353.575 224.95 353.353C224.879 353.341 224.808 353.329 224.737 353.317C224.055 353.199 223.374 353.067 222.701 352.904C222.4 352.831 222.111 352.642 222.192 352.269C222.269 351.913 222.597 351.972 222.864 351.989C223.074 352.002 223.282 352.044 223.49 352.074V352.074C224.243 352.185 224.526 351.249 223.823 350.958C221.12 349.841 218.337 348.963 215.476 348.319C210.899 347.289 206.207 347.084 201.58 346.407Z" fill="#375A54"/>
<path d="M189.319 322.363C193.765 322.438 198.594 322.761 203.185 324.604C203.632 324.784 204.088 324.948 204.519 325.16C204.869 325.333 205.258 325.541 205.208 326.016C205.157 326.498 204.784 326.73 204.358 326.85C203.283 327.148 202.208 327.444 201.125 327.714C197.822 328.537 194.535 329.474 191.145 329.862C184.874 330.579 178.881 329.708 173.343 326.499C172.875 326.228 172.393 325.946 172.081 325.487C171.801 325.075 171.768 324.581 172.371 324.534C174.367 324.375 176.257 323.731 178.205 323.361C181.742 322.691 185.309 322.424 189.319 322.363ZM197.221 325.188C198.015 325.184 198.142 324.367 197.361 324.224C191.034 323.066 181.248 323.555 176.244 325.01C175.949 325.096 175.982 325.499 176.285 325.544V325.544C179.951 326.098 183.631 326.452 187.344 326.385C187.663 326.378 187.873 326.526 187.943 326.825C188.015 327.134 187.846 327.371 187.579 327.478C187.364 327.565 187.11 327.585 186.873 327.587C184.249 327.609 181.64 327.393 179.037 327.097C178.677 327.056 178.314 327.046 177.957 326.997V326.997C177.539 326.941 177.52 327.242 177.919 327.378C181.6 328.628 185.309 329.125 189.124 328.894C191.934 328.724 194.659 328.139 197.363 327.443C198.087 327.256 197.975 326.323 197.227 326.319V326.319C196.795 326.316 196.283 326.288 196.311 325.711C196.336 325.212 196.821 325.19 197.221 325.188V325.188Z" fill="#375A54"/>
<path d="M148.606 322.449C152.872 322.421 157.447 323.318 161.992 324.431C162.225 324.489 162.469 324.547 162.705 324.538C163.043 324.525 163.397 324.439 163.528 324.872C163.656 325.291 163.381 325.566 163.099 325.796C161.655 326.982 159.973 327.732 158.237 328.351C152.638 330.346 146.936 330.588 141.141 329.332C137.869 328.623 134.63 327.788 131.398 326.926C130.885 326.79 130.341 326.646 130.27 326.045C130.194 325.395 130.786 325.204 131.244 325.015C134.415 323.714 137.691 322.86 141.129 322.631C143.474 322.475 145.812 322.266 148.606 322.449ZM151.745 328.708C152.827 328.575 152.603 327.434 151.516 327.517V327.517C150.429 327.601 149.347 327.587 148.263 327.576C147.859 327.572 147.528 327.374 147.518 326.944C147.51 326.553 147.779 326.34 148.185 326.398C149.757 326.622 151.314 326.298 152.876 326.238V326.238C154.725 326.166 154.767 324.155 152.929 323.937C147.153 323.252 141.372 323.462 135.583 324.812C135.272 324.884 135.276 325.184 135.595 325.184V325.184C136.471 325.185 137.345 325.177 138.219 325.19C138.642 325.196 139.177 325.194 139.156 325.773C139.137 326.334 138.605 326.311 138.18 326.324C137.909 326.332 137.637 326.327 137.365 326.327V326.327C136.822 326.327 136.715 327.062 137.239 327.205C142.058 328.521 146.887 329.306 151.745 328.708Z" fill="#375A54"/>
<path d="M298.706 346.603C292.809 346.754 287.308 345.398 282.132 342.672C280.344 341.73 278.541 340.814 276.754 339.872C276.396 339.683 275.89 339.546 275.969 339.005C276.049 338.454 276.564 338.364 277 338.269C282.966 336.953 288.905 337.067 294.802 338.673C298.644 339.72 302.474 340.811 306.087 342.529C307.039 342.981 308.002 343.437 308.761 344.198C309.521 344.957 309.33 345.706 308.309 346.028C307.23 346.368 306.091 346.359 304.992 346.383C302.882 346.43 300.781 346.724 298.706 346.603ZM300.823 345.443C301.806 345.402 301.899 344.121 300.942 343.89V343.89C300.559 343.797 300.073 343.734 300.143 343.217C300.224 342.617 300.763 342.734 301.161 342.802C301.753 342.903 302.333 343.08 302.918 343.227C303.473 343.365 304.027 343.51 304.583 343.645C305.05 343.758 305.518 343.864 305.986 343.972C306.076 343.993 306.165 343.935 306.181 343.845V343.845C306.196 343.769 306.154 343.694 306.082 343.665C299.853 341.188 293.581 338.943 286.953 338.6C285.47 338.524 285.367 340.084 286.822 340.376V340.376C287.216 340.455 287.699 340.5 287.59 341.037C287.484 341.56 286.991 341.576 286.557 341.497C285.906 341.379 285.265 341.207 284.614 341.081V341.081C283.616 340.887 283.182 342.051 284.104 342.478C289.441 344.948 295.046 345.682 300.823 345.443Z" fill="#375A54"/>
<path d="M36.713 346.677C33.8846 346.532 31.0541 346.417 28.2288 346.224C27.4847 346.173 26.5057 346.19 26.2871 345.232C26.0808 344.327 26.9254 343.93 27.5442 343.543C30.3603 341.777 33.509 340.804 36.6484 339.824C39.6707 338.881 42.725 338.075 45.8777 337.652C49.8679 337.117 53.8098 337.358 57.7374 338.139C58.1499 338.221 58.5779 338.28 58.9627 338.437C59.6483 338.716 59.7324 339.292 59.1074 339.636C53.5501 342.698 47.9846 345.764 41.5016 346.401C39.915 346.557 38.3192 346.73 36.713 346.677ZM34.4449 343.901C33.5004 344.131 33.5926 345.397 34.5638 345.439C40.6633 345.701 46.5769 344.882 52.1839 342.081C52.9153 341.716 52.5516 340.748 51.749 340.904V340.904C50.7443 341.099 49.7468 341.332 48.74 341.513C48.3654 341.579 47.962 341.48 47.8707 341.052C47.767 340.57 48.155 340.467 48.5337 340.391C49.0951 340.279 49.6493 340.135 50.2106 340.026V340.026C51.2316 339.827 51.1836 338.617 50.1435 338.613C44.5243 338.595 39.1869 340.044 33.9489 342.006C33.2638 342.263 33.4838 342.987 34.1966 342.822V342.822C34.6102 342.727 35.2023 342.564 35.3101 343.204C35.4055 343.772 34.8513 343.802 34.4449 343.901V343.901Z" fill="#375A54"/>
<path d="M163.982 346.587C164.015 343.32 164.891 340.096 165.957 336.912C166.264 335.996 166.566 335.08 166.886 334.169C167.014 333.801 167.258 333.561 167.686 333.551C168.1 333.541 168.402 333.704 168.537 334.09C169.977 338.192 171.53 342.302 171.483 346.712C171.439 350.951 170.592 355.097 169.096 359.086C168.821 359.819 168.497 360.534 168.442 361.335C168.418 361.693 168.219 361.959 167.819 361.995C167.44 362.029 167.123 361.886 167.06 361.507C166.718 359.437 165.691 357.582 165.229 355.55C164.567 352.634 164.019 349.706 163.982 346.587ZM166.864 356.871C166.884 356.937 166.947 356.981 167.017 356.977V356.977C167.097 356.973 167.161 356.907 167.161 356.826C167.161 355.134 167.16 353.442 167.162 351.75C167.162 351.344 167.185 350.874 167.695 350.854C168.279 350.831 168.297 351.334 168.298 351.768C168.304 353.307 168.301 354.845 168.312 356.382V356.382C168.314 356.765 168.655 356.688 168.764 356.321C170.351 350.999 170.886 345.708 169.326 340.371C169.195 339.923 168.187 339.891 167.72 339.89V339.89V339.89C167.23 339.889 166.246 339.856 166.114 340.328C164.523 345.997 165.163 351.443 166.864 356.871Z" fill="#375A54"/>
<path d="M258.712 347.708C258.711 347.697 258.702 347.688 258.69 347.688C258.305 347.688 257.92 347.703 257.536 347.683C257.213 347.666 256.918 347.545 256.914 347.165C256.91 346.752 257.25 346.714 257.555 346.693C258.395 346.636 259.236 346.601 260.076 346.535C260.431 346.507 260.778 346.475 260.825 346.941C260.866 347.34 260.582 347.58 260.243 347.634C259.748 347.713 259.238 347.702 258.733 347.728C258.722 347.728 258.712 347.719 258.712 347.708V347.708Z" fill="#375A54"/>
<path d="M76.6707 347.706C76.67 347.718 76.6598 347.727 76.6476 347.727C76.1743 347.702 75.6925 347.719 75.2306 347.634C74.8571 347.566 74.5564 347.309 74.6549 346.86C74.7421 346.46 75.0675 346.511 75.3825 346.534C76.222 346.597 77.0636 346.635 77.9031 346.692C78.2089 346.713 78.5496 346.746 78.5527 347.158C78.5558 347.538 78.2612 347.666 77.938 347.682C77.5236 347.702 77.1072 347.687 76.6918 347.687C76.6807 347.687 76.6714 347.695 76.6707 347.706V347.706Z" fill="#375A54"/>
</g>
</svg>
